<svg width="1728" height="396" viewBox="0 0 1728 396" fill="none" xmlns="http://www.w3.org/2000/svg">
<g clip-path="url(#clip0_1096_24621)">
<rect width="1728" height="396" fill="url(#paint0_linear_1096_24621)"/>
<circle cx="1518.84" cy="252.342" r="2.84211" fill="#7B2374"/>
<circle cx="1540.53" cy="252.342" r="2.84211" fill="#7B2374"/>
<circle cx="1562.21" cy="252.342" r="2.84211" fill="#7B2374"/>
<circle cx="1583.89" cy="252.342" r="2.84211" fill="#7B2374"/>
<circle cx="1605.58" cy="252.342" r="2.84211" fill="#7B2374"/>
<circle cx="1627.26" cy="252.342" r="2.84211" fill="#7B2374"/>
<circle cx="1648.95" cy="252.342" r="2.84211" fill="#7B2374"/>
<circle cx="1670.63" cy="252.342" r="2.84211" fill="#7B2374"/>
<circle cx="1692.32" cy="252.342" r="2.84211" fill="#7B2374"/>
<circle cx="1714" cy="252.342" r="2.84211" fill="#7B2374"/>
<circle cx="1518.84" cy="276.027" r="2.84211" fill="#7B2374"/>
<circle cx="1540.53" cy="276.027" r="2.84211" fill="#7B2374"/>
<circle cx="1562.21" cy="276.027" r="2.84211" fill="#7B2374"/>
<circle cx="1583.89" cy="276.027" r="2.84211" fill="#7B2374"/>
<circle cx="1605.58" cy="276.027" r="2.84211" fill="#7B2374"/>
<circle cx="1627.26" cy="276.027" r="2.84211" fill="#7B2374"/>
<circle cx="1648.95" cy="276.027" r="2.84211" fill="#7B2374"/>
<circle cx="1670.63" cy="276.027" r="2.84211" fill="#7B2374"/>
<circle cx="1692.32" cy="276.027" r="2.84211" fill="#7B2374"/>
<circle cx="1714" cy="276.027" r="2.84211" fill="#7B2374"/>
<circle cx="1518.84" cy="299.71" r="2.84211" fill="#7B2374"/>
<circle cx="1540.53" cy="299.71" r="2.84211" fill="#7B2374"/>
<circle cx="1562.21" cy="299.71" r="2.84211" fill="#7B2374"/>
<circle cx="1583.89" cy="299.71" r="2.84211" fill="#7B2374"/>
<circle cx="1605.58" cy="299.71" r="2.84211" fill="#7B2374"/>
<circle cx="1627.26" cy="299.71" r="2.84211" fill="#7B2374"/>
<circle cx="1648.95" cy="299.71" r="2.84211" fill="#7B2374"/>
<circle cx="1670.63" cy="299.71" r="2.84211" fill="#7B2374"/>
<circle cx="1692.32" cy="299.71" r="2.84211" fill="#7B2374"/>
<circle cx="1714" cy="299.71" r="2.84211" fill="#7B2374"/>
<circle cx="1518.84" cy="323.395" r="2.84211" fill="#7B2374"/>
<circle cx="1540.53" cy="323.395" r="2.84211" fill="#7B2374"/>
<circle cx="1562.21" cy="323.395" r="2.84211" fill="#7B2374"/>
<circle cx="1583.89" cy="323.395" r="2.84211" fill="#7B2374"/>
<circle cx="1605.58" cy="323.395" r="2.84211" fill="#7B2374"/>
<circle cx="1627.26" cy="323.395" r="2.84211" fill="#7B2374"/>
<circle cx="1648.95" cy="323.395" r="2.84211" fill="#7B2374"/>
<circle cx="1670.63" cy="323.395" r="2.84211" fill="#7B2374"/>
<circle cx="1692.32" cy="323.395" r="2.84211" fill="#7B2374"/>
<circle cx="1714" cy="323.395" r="2.84211" fill="#7B2374"/>
<circle cx="1518.84" cy="347.079" r="2.84211" fill="#7B2374"/>
<circle cx="1540.53" cy="347.079" r="2.84211" fill="#7B2374"/>
<circle cx="1562.21" cy="347.079" r="2.84211" fill="#7B2374"/>
<circle cx="1583.89" cy="347.079" r="2.84211" fill="#7B2374"/>
<circle cx="1605.58" cy="347.079" r="2.84211" fill="#7B2374"/>
<circle cx="1627.26" cy="347.079" r="2.84211" fill="#7B2374"/>
<circle cx="1648.95" cy="347.079" r="2.84211" fill="#7B2374"/>
<circle cx="1670.63" cy="347.079" r="2.84211" fill="#7B2374"/>
<circle cx="1692.32" cy="347.079" r="2.84211" fill="#7B2374"/>
<circle cx="1714" cy="347.079" r="2.84211" fill="#7B2374"/>
<circle cx="1518.84" cy="370.763" r="2.84211" fill="#7B2374"/>
<circle cx="1540.53" cy="370.763" r="2.84211" fill="#7B2374"/>
<circle cx="1562.21" cy="370.763" r="2.84211" fill="#7B2374"/>
<circle cx="1583.89" cy="370.763" r="2.84211" fill="#7B2374"/>
<circle cx="1605.58" cy="370.763" r="2.84211" fill="#7B2374"/>
<circle cx="1627.26" cy="370.763" r="2.84211" fill="#7B2374"/>
<circle cx="1648.95" cy="370.763" r="2.84211" fill="#7B2374"/>
<circle cx="1670.63" cy="370.763" r="2.84211" fill="#7B2374"/>
<circle cx="1692.32" cy="370.763" r="2.84211" fill="#7B2374"/>
<circle cx="1714" cy="370.763" r="2.84211" fill="#7B2374"/>
<circle cx="1518.84" cy="394.448" r="2.84211" fill="#7B2374"/>
<circle cx="1540.53" cy="394.448" r="2.84211" fill="#7B2374"/>
<circle cx="1562.21" cy="394.448" r="2.84211" fill="#7B2374"/>
<circle cx="1583.89" cy="394.448" r="2.84211" fill="#7B2374"/>
<circle cx="1605.58" cy="394.448" r="2.84211" fill="#7B2374"/>
<circle cx="1627.26" cy="394.448" r="2.84211" fill="#7B2374"/>
<circle cx="1648.95" cy="394.448" r="2.84211" fill="#7B2374"/>
<circle cx="1670.63" cy="394.448" r="2.84211" fill="#7B2374"/>
<circle cx="1692.32" cy="394.448" r="2.84211" fill="#7B2374"/>
<circle cx="1714" cy="394.448" r="2.84211" fill="#7B2374"/>
<circle cx="260.158" cy="85.1312" r="2.84211" transform="rotate(90 260.158 85.1312)" fill="#591863"/>
<circle cx="260.158" cy="106.816" r="2.84211" transform="rotate(90 260.158 106.816)" fill="#591863"/>
<circle cx="260.158" cy="128.499" r="2.84211" transform="rotate(90 260.158 128.499)" fill="#591863"/>
<circle cx="260.158" cy="150.184" r="2.84211" transform="rotate(90 260.158 150.184)" fill="#591863"/>
<circle cx="260.158" cy="171.868" r="2.84211" transform="rotate(90 260.158 171.868)" fill="#591863"/>
<circle cx="260.158" cy="193.552" r="2.84211" transform="rotate(90 260.158 193.552)" fill="#591863"/>
<circle cx="260.158" cy="215.237" r="2.84211" transform="rotate(90 260.158 215.237)" fill="#591863"/>
<circle cx="260.158" cy="236.92" r="2.84211" transform="rotate(90 260.158 236.92)" fill="#591863"/>
<circle cx="260.158" cy="258.605" r="2.84211" transform="rotate(90 260.158 258.605)" fill="#591863"/>
<circle cx="260.158" cy="280.289" r="2.84211" transform="rotate(90 260.158 280.289)" fill="#591863"/>
<circle cx="260.158" cy="301.973" r="2.84211" transform="rotate(90 260.158 301.973)" fill="#591863"/>
<circle cx="260.158" cy="323.658" r="2.84211" transform="rotate(90 260.158 323.658)" fill="#591863"/>
<circle cx="236.474" cy="85.1312" r="2.84211" transform="rotate(90 236.474 85.1312)" fill="#591863"/>
<circle cx="236.474" cy="106.816" r="2.84211" transform="rotate(90 236.474 106.816)" fill="#591863"/>
<circle cx="236.474" cy="128.499" r="2.84211" transform="rotate(90 236.474 128.499)" fill="#591863"/>
<circle cx="236.474" cy="150.184" r="2.84211" transform="rotate(90 236.474 150.184)" fill="#591863"/>
<circle cx="236.474" cy="171.868" r="2.84211" transform="rotate(90 236.474 171.868)" fill="#591863"/>
<circle cx="236.474" cy="193.552" r="2.84211" transform="rotate(90 236.474 193.552)" fill="#591863"/>
<circle cx="236.474" cy="215.237" r="2.84211" transform="rotate(90 236.474 215.237)" fill="#591863"/>
<circle cx="236.474" cy="236.92" r="2.84211" transform="rotate(90 236.474 236.92)" fill="#591863"/>
<circle cx="236.474" cy="258.605" r="2.84211" transform="rotate(90 236.474 258.605)" fill="#591863"/>
<circle cx="236.474" cy="280.289" r="2.84211" transform="rotate(90 236.474 280.289)" fill="#591863"/>
<circle cx="236.474" cy="301.973" r="2.84211" transform="rotate(90 236.474 301.973)" fill="#591863"/>
<circle cx="236.474" cy="323.658" r="2.84211" transform="rotate(90 236.474 323.658)" fill="#591863"/>
<circle cx="212.789" cy="85.1312" r="2.84211" transform="rotate(90 212.789 85.1312)" fill="#591863"/>
<circle cx="212.789" cy="106.816" r="2.84211" transform="rotate(90 212.789 106.816)" fill="#591863"/>
<circle cx="212.789" cy="128.499" r="2.84211" transform="rotate(90 212.789 128.499)" fill="#591863"/>
<circle cx="212.789" cy="150.184" r="2.84211" transform="rotate(90 212.789 150.184)" fill="#591863"/>
<circle cx="212.789" cy="171.868" r="2.84211" transform="rotate(90 212.789 171.868)" fill="#591863"/>
<circle cx="212.789" cy="193.552" r="2.84211" transform="rotate(90 212.789 193.552)" fill="#591863"/>
<circle cx="212.789" cy="215.237" r="2.84211" transform="rotate(90 212.789 215.237)" fill="#591863"/>
<circle cx="212.789" cy="236.92" r="2.84211" transform="rotate(90 212.789 236.92)" fill="#591863"/>
<circle cx="212.789" cy="258.605" r="2.84211" transform="rotate(90 212.789 258.605)" fill="#591863"/>
<circle cx="212.789" cy="280.289" r="2.84211" transform="rotate(90 212.789 280.289)" fill="#591863"/>
<circle cx="212.789" cy="301.973" r="2.84211" transform="rotate(90 212.789 301.973)" fill="#591863"/>
<circle cx="212.789" cy="323.658" r="2.84211" transform="rotate(90 212.789 323.658)" fill="#591863"/>
<circle cx="189.105" cy="85.1312" r="2.84211" transform="rotate(90 189.105 85.1312)" fill="#591863"/>
<circle cx="189.105" cy="106.816" r="2.84211" transform="rotate(90 189.105 106.816)" fill="#591863"/>
<circle cx="189.105" cy="128.499" r="2.84211" transform="rotate(90 189.105 128.499)" fill="#591863"/>
<circle cx="189.105" cy="150.184" r="2.84211" transform="rotate(90 189.105 150.184)" fill="#591863"/>
<circle cx="189.105" cy="171.868" r="2.84211" transform="rotate(90 189.105 171.868)" fill="#591863"/>
<circle cx="189.105" cy="193.552" r="2.84211" transform="rotate(90 189.105 193.552)" fill="#591863"/>
<circle cx="189.105" cy="215.237" r="2.84211" transform="rotate(90 189.105 215.237)" fill="#591863"/>
<circle cx="189.105" cy="236.92" r="2.84211" transform="rotate(90 189.105 236.92)" fill="#591863"/>
<circle cx="189.105" cy="258.605" r="2.84211" transform="rotate(90 189.105 258.605)" fill="#591863"/>
<circle cx="189.105" cy="280.289" r="2.84211" transform="rotate(90 189.105 280.289)" fill="#591863"/>
<circle cx="189.105" cy="301.973" r="2.84211" transform="rotate(90 189.105 301.973)" fill="#591863"/>
<circle cx="189.105" cy="323.658" r="2.84211" transform="rotate(90 189.105 323.658)" fill="#591863"/>
<circle cx="165.421" cy="85.1312" r="2.84211" transform="rotate(90 165.421 85.1312)" fill="#591863"/>
<circle cx="165.421" cy="106.816" r="2.84211" transform="rotate(90 165.421 106.816)" fill="#591863"/>
<circle cx="165.421" cy="128.499" r="2.84211" transform="rotate(90 165.421 128.499)" fill="#591863"/>
<circle cx="165.421" cy="150.184" r="2.84211" transform="rotate(90 165.421 150.184)" fill="#591863"/>
<circle cx="165.421" cy="171.868" r="2.84211" transform="rotate(90 165.421 171.868)" fill="#591863"/>
<circle cx="165.421" cy="193.552" r="2.84211" transform="rotate(90 165.421 193.552)" fill="#591863"/>
<circle cx="165.421" cy="215.237" r="2.84211" transform="rotate(90 165.421 215.237)" fill="#591863"/>
<circle cx="165.421" cy="236.92" r="2.84211" transform="rotate(90 165.421 236.92)" fill="#591863"/>
<circle cx="165.421" cy="258.605" r="2.84211" transform="rotate(90 165.421 258.605)" fill="#591863"/>
<circle cx="165.421" cy="280.289" r="2.84211" transform="rotate(90 165.421 280.289)" fill="#591863"/>
<circle cx="165.421" cy="301.973" r="2.84211" transform="rotate(90 165.421 301.973)" fill="#591863"/>
<circle cx="165.421" cy="323.658" r="2.84211" transform="rotate(90 165.421 323.658)" fill="#591863"/>
<circle cx="141.737" cy="85.1312" r="2.84211" transform="rotate(90 141.737 85.1312)" fill="#591863"/>
<circle cx="141.737" cy="106.816" r="2.84211" transform="rotate(90 141.737 106.816)" fill="#591863"/>
<circle cx="141.737" cy="128.499" r="2.84211" transform="rotate(90 141.737 128.499)" fill="#591863"/>
<circle cx="141.737" cy="150.184" r="2.84211" transform="rotate(90 141.737 150.184)" fill="#591863"/>
<circle cx="141.737" cy="171.868" r="2.84211" transform="rotate(90 141.737 171.868)" fill="#591863"/>
<circle cx="141.737" cy="193.552" r="2.84211" transform="rotate(90 141.737 193.552)" fill="#591863"/>
<circle cx="141.737" cy="215.237" r="2.84211" transform="rotate(90 141.737 215.237)" fill="#591863"/>
<circle cx="141.737" cy="236.92" r="2.84211" transform="rotate(90 141.737 236.92)" fill="#591863"/>
<circle cx="141.737" cy="258.605" r="2.84211" transform="rotate(90 141.737 258.605)" fill="#591863"/>
<circle cx="141.737" cy="280.289" r="2.84211" transform="rotate(90 141.737 280.289)" fill="#591863"/>
<circle cx="141.737" cy="301.973" r="2.84211" transform="rotate(90 141.737 301.973)" fill="#591863"/>
<circle cx="141.737" cy="323.658" r="2.84211" transform="rotate(90 141.737 323.658)" fill="#591863"/>
<circle cx="118.053" cy="85.1312" r="2.84211" transform="rotate(90 118.053 85.1312)" fill="#591863"/>
<circle cx="118.053" cy="106.816" r="2.84211" transform="rotate(90 118.053 106.816)" fill="#591863"/>
<circle cx="118.053" cy="128.499" r="2.84211" transform="rotate(90 118.053 128.499)" fill="#591863"/>
<circle cx="118.053" cy="150.184" r="2.84211" transform="rotate(90 118.053 150.184)" fill="#591863"/>
<circle cx="118.053" cy="171.868" r="2.84211" transform="rotate(90 118.053 171.868)" fill="#591863"/>
<circle cx="118.053" cy="193.552" r="2.84211" transform="rotate(90 118.053 193.552)" fill="#591863"/>
<circle cx="118.053" cy="215.237" r="2.84211" transform="rotate(90 118.053 215.237)" fill="#591863"/>
<circle cx="118.053" cy="236.92" r="2.84211" transform="rotate(90 118.053 236.92)" fill="#591863"/>
<circle cx="118.053" cy="258.605" r="2.84211" transform="rotate(90 118.053 258.605)" fill="#591863"/>
<circle cx="118.053" cy="280.289" r="2.84211" transform="rotate(90 118.053 280.289)" fill="#591863"/>
<circle cx="118.053" cy="301.973" r="2.84211" transform="rotate(90 118.053 301.973)" fill="#591863"/>
<circle cx="118.053" cy="323.658" r="2.84211" transform="rotate(90 118.053 323.658)" fill="#591863"/>
</g>
<defs>
<linearGradient id="paint0_linear_1096_24621" x1="-9.10171" y1="390.332" x2="1727.98" y2="399.264" gradientUnits="userSpaceOnUse">
<stop stop-color="#26102A"/>
<stop offset="0.473958" stop-color="#490E50"/>
<stop offset="1" stop-color="#7B0C70" stop-opacity="0.66"/>
</linearGradient>
<clipPath id="clip0_1096_24621">
<rect width="1728" height="396" fill="white"/>
</clipPath>
</defs>
</svg>
