<svg width="375" height="499" viewBox="0 0 375 499" fill="none" xmlns="http://www.w3.org/2000/svg">
<g clip-path="url(#clip0_1115_24063)">
<rect width="375" height="499" fill="url(#paint0_linear_1115_24063)"/>
<circle cx="206.978" cy="384.978" r="1.97845" fill="#7B2374"/>
<circle cx="222.073" cy="384.978" r="1.97845" fill="#7B2374"/>
<circle cx="237.168" cy="384.978" r="1.97845" fill="#7B2374"/>
<circle cx="252.263" cy="384.978" r="1.97845" fill="#7B2374"/>
<circle cx="267.358" cy="384.978" r="1.97845" fill="#7B2374"/>
<circle cx="282.453" cy="384.978" r="1.97845" fill="#7B2374"/>
<circle cx="297.548" cy="384.978" r="1.97845" fill="#7B2374"/>
<circle cx="312.642" cy="384.978" r="1.97845" fill="#7B2374"/>
<circle cx="327.737" cy="384.978" r="1.97845" fill="#7B2374"/>
<circle cx="342.832" cy="384.978" r="1.97845" fill="#7B2374"/>
<circle cx="357.926" cy="384.978" r="1.97845" fill="#7B2374"/>
<circle cx="373.022" cy="384.978" r="1.97845" fill="#7B2374"/>
<circle cx="206.978" cy="401.466" r="1.97845" fill="#7B2374"/>
<circle cx="222.073" cy="401.466" r="1.97845" fill="#7B2374"/>
<circle cx="237.168" cy="401.466" r="1.97845" fill="#7B2374"/>
<circle cx="252.263" cy="401.466" r="1.97845" fill="#7B2374"/>
<circle cx="267.358" cy="401.466" r="1.97845" fill="#7B2374"/>
<circle cx="282.453" cy="401.466" r="1.97845" fill="#7B2374"/>
<circle cx="297.548" cy="401.466" r="1.97845" fill="#7B2374"/>
<circle cx="312.642" cy="401.466" r="1.97845" fill="#7B2374"/>
<circle cx="327.737" cy="401.466" r="1.97845" fill="#7B2374"/>
<circle cx="342.832" cy="401.466" r="1.97845" fill="#7B2374"/>
<circle cx="357.926" cy="401.466" r="1.97845" fill="#7B2374"/>
<circle cx="373.022" cy="401.466" r="1.97845" fill="#7B2374"/>
<circle cx="206.978" cy="417.953" r="1.97845" fill="#7B2374"/>
<circle cx="222.073" cy="417.953" r="1.97845" fill="#7B2374"/>
<circle cx="237.168" cy="417.953" r="1.97845" fill="#7B2374"/>
<circle cx="252.263" cy="417.953" r="1.97845" fill="#7B2374"/>
<circle cx="267.358" cy="417.953" r="1.97845" fill="#7B2374"/>
<circle cx="282.453" cy="417.953" r="1.97845" fill="#7B2374"/>
<circle cx="297.548" cy="417.953" r="1.97845" fill="#7B2374"/>
<circle cx="312.642" cy="417.953" r="1.97845" fill="#7B2374"/>
<circle cx="327.737" cy="417.953" r="1.97845" fill="#7B2374"/>
<circle cx="342.832" cy="417.953" r="1.97845" fill="#7B2374"/>
<circle cx="357.926" cy="417.953" r="1.97845" fill="#7B2374"/>
<circle cx="373.022" cy="417.953" r="1.97845" fill="#7B2374"/>
<circle cx="206.978" cy="434.439" r="1.97845" fill="#7B2374"/>
<circle cx="222.073" cy="434.439" r="1.97845" fill="#7B2374"/>
<circle cx="237.168" cy="434.439" r="1.97845" fill="#7B2374"/>
<circle cx="252.263" cy="434.439" r="1.97845" fill="#7B2374"/>
<circle cx="267.358" cy="434.439" r="1.97845" fill="#7B2374"/>
<circle cx="282.453" cy="434.439" r="1.97845" fill="#7B2374"/>
<circle cx="297.548" cy="434.439" r="1.97845" fill="#7B2374"/>
<circle cx="312.642" cy="434.439" r="1.97845" fill="#7B2374"/>
<circle cx="327.737" cy="434.439" r="1.97845" fill="#7B2374"/>
<circle cx="342.832" cy="434.439" r="1.97845" fill="#7B2374"/>
<circle cx="357.926" cy="434.439" r="1.97845" fill="#7B2374"/>
<circle cx="373.022" cy="434.439" r="1.97845" fill="#7B2374"/>
<circle cx="206.978" cy="450.927" r="1.97845" fill="#7B2374"/>
<circle cx="222.073" cy="450.927" r="1.97845" fill="#7B2374"/>
<circle cx="237.168" cy="450.927" r="1.97845" fill="#7B2374"/>
<circle cx="252.263" cy="450.927" r="1.97845" fill="#7B2374"/>
<circle cx="267.358" cy="450.927" r="1.97845" fill="#7B2374"/>
<circle cx="282.453" cy="450.927" r="1.97845" fill="#7B2374"/>
<circle cx="297.548" cy="450.927" r="1.97845" fill="#7B2374"/>
<circle cx="312.642" cy="450.927" r="1.97845" fill="#7B2374"/>
<circle cx="327.737" cy="450.927" r="1.97845" fill="#7B2374"/>
<circle cx="342.832" cy="450.927" r="1.97845" fill="#7B2374"/>
<circle cx="357.926" cy="450.927" r="1.97845" fill="#7B2374"/>
<circle cx="373.022" cy="450.927" r="1.97845" fill="#7B2374"/>
<circle cx="206.978" cy="467.414" r="1.97845" fill="#7B2374"/>
<circle cx="222.073" cy="467.414" r="1.97845" fill="#7B2374"/>
<circle cx="237.168" cy="467.414" r="1.97845" fill="#7B2374"/>
<circle cx="252.263" cy="467.414" r="1.97845" fill="#7B2374"/>
<circle cx="267.358" cy="467.414" r="1.97845" fill="#7B2374"/>
<circle cx="282.453" cy="467.414" r="1.97845" fill="#7B2374"/>
<circle cx="297.548" cy="467.414" r="1.97845" fill="#7B2374"/>
<circle cx="312.642" cy="467.414" r="1.97845" fill="#7B2374"/>
<circle cx="327.737" cy="467.414" r="1.97845" fill="#7B2374"/>
<circle cx="342.832" cy="467.414" r="1.97845" fill="#7B2374"/>
<circle cx="357.926" cy="467.414" r="1.97845" fill="#7B2374"/>
<circle cx="373.022" cy="467.414" r="1.97845" fill="#7B2374"/>
<circle cx="206.978" cy="483.901" r="1.97845" fill="#7B2374"/>
<circle cx="222.073" cy="483.901" r="1.97845" fill="#7B2374"/>
<circle cx="237.168" cy="483.901" r="1.97845" fill="#7B2374"/>
<circle cx="252.263" cy="483.901" r="1.97845" fill="#7B2374"/>
<circle cx="267.358" cy="483.901" r="1.97845" fill="#7B2374"/>
<circle cx="282.453" cy="483.901" r="1.97845" fill="#7B2374"/>
<circle cx="297.548" cy="483.901" r="1.97845" fill="#7B2374"/>
<circle cx="312.642" cy="483.901" r="1.97845" fill="#7B2374"/>
<circle cx="327.737" cy="483.901" r="1.97845" fill="#7B2374"/>
<circle cx="342.832" cy="483.901" r="1.97845" fill="#7B2374"/>
<circle cx="357.926" cy="483.901" r="1.97845" fill="#7B2374"/>
<circle cx="373.022" cy="483.901" r="1.97845" fill="#7B2374"/>
<circle cx="83.4423" cy="10.3272" r="1.5577" transform="rotate(90 83.4423 10.3272)" fill="#591863"/>
<circle cx="83.4423" cy="22.212" r="1.5577" transform="rotate(90 83.4423 22.212)" fill="#591863"/>
<circle cx="83.4423" cy="34.0968" r="1.5577" transform="rotate(90 83.4423 34.0968)" fill="#591863"/>
<circle cx="83.4423" cy="45.9815" r="1.5577" transform="rotate(90 83.4423 45.9815)" fill="#591863"/>
<circle cx="83.4423" cy="57.8653" r="1.5577" transform="rotate(90 83.4423 57.8653)" fill="#591863"/>
<circle cx="83.4423" cy="69.7501" r="1.5577" transform="rotate(90 83.4423 69.7501)" fill="#591863"/>
<circle cx="83.4423" cy="81.6348" r="1.5577" transform="rotate(90 83.4423 81.6348)" fill="#591863"/>
<circle cx="83.4423" cy="93.5196" r="1.5577" transform="rotate(90 83.4423 93.5196)" fill="#591863"/>
<circle cx="83.4423" cy="105.404" r="1.5577" transform="rotate(90 83.4423 105.404)" fill="#591863"/>
<circle cx="83.4423" cy="117.289" r="1.5577" transform="rotate(90 83.4423 117.289)" fill="#591863"/>
<circle cx="70.4613" cy="10.3272" r="1.5577" transform="rotate(90 70.4613 10.3272)" fill="#591863"/>
<circle cx="70.4613" cy="22.212" r="1.5577" transform="rotate(90 70.4613 22.212)" fill="#591863"/>
<circle cx="70.4613" cy="34.0968" r="1.5577" transform="rotate(90 70.4613 34.0968)" fill="#591863"/>
<circle cx="70.4613" cy="45.9815" r="1.5577" transform="rotate(90 70.4613 45.9815)" fill="#591863"/>
<circle cx="70.4613" cy="57.8653" r="1.5577" transform="rotate(90 70.4613 57.8653)" fill="#591863"/>
<circle cx="70.4613" cy="69.7501" r="1.5577" transform="rotate(90 70.4613 69.7501)" fill="#591863"/>
<circle cx="70.4613" cy="81.6348" r="1.5577" transform="rotate(90 70.4613 81.6348)" fill="#591863"/>
<circle cx="70.4613" cy="93.5196" r="1.5577" transform="rotate(90 70.4613 93.5196)" fill="#591863"/>
<circle cx="70.4613" cy="105.404" r="1.5577" transform="rotate(90 70.4613 105.404)" fill="#591863"/>
<circle cx="70.4613" cy="117.289" r="1.5577" transform="rotate(90 70.4613 117.289)" fill="#591863"/>
<circle cx="57.4806" cy="10.3272" r="1.5577" transform="rotate(90 57.4806 10.3272)" fill="#591863"/>
<circle cx="57.4806" cy="22.212" r="1.5577" transform="rotate(90 57.4806 22.212)" fill="#591863"/>
<circle cx="57.4806" cy="34.0968" r="1.5577" transform="rotate(90 57.4806 34.0968)" fill="#591863"/>
<circle cx="57.4804" cy="45.9815" r="1.5577" transform="rotate(90 57.4804 45.9815)" fill="#591863"/>
<circle cx="57.4804" cy="57.8653" r="1.5577" transform="rotate(90 57.4804 57.8653)" fill="#591863"/>
<circle cx="57.4804" cy="69.7501" r="1.5577" transform="rotate(90 57.4804 69.7501)" fill="#591863"/>
<circle cx="57.4804" cy="81.6348" r="1.5577" transform="rotate(90 57.4804 81.6348)" fill="#591863"/>
<circle cx="57.4804" cy="93.5196" r="1.5577" transform="rotate(90 57.4804 93.5196)" fill="#591863"/>
<circle cx="57.4804" cy="105.404" r="1.5577" transform="rotate(90 57.4804 105.404)" fill="#591863"/>
<circle cx="57.4804" cy="117.289" r="1.5577" transform="rotate(90 57.4804 117.289)" fill="#591863"/>
<circle cx="44.4997" cy="10.3272" r="1.5577" transform="rotate(90 44.4997 10.3272)" fill="#591863"/>
<circle cx="44.4997" cy="22.212" r="1.5577" transform="rotate(90 44.4997 22.212)" fill="#591863"/>
<circle cx="44.4997" cy="34.0968" r="1.5577" transform="rotate(90 44.4997 34.0968)" fill="#591863"/>
<circle cx="44.4997" cy="45.9815" r="1.5577" transform="rotate(90 44.4997 45.9815)" fill="#591863"/>
<circle cx="44.4997" cy="57.8653" r="1.5577" transform="rotate(90 44.4997 57.8653)" fill="#591863"/>
<circle cx="44.4997" cy="69.7501" r="1.5577" transform="rotate(90 44.4997 69.7501)" fill="#591863"/>
<circle cx="44.4997" cy="81.6348" r="1.5577" transform="rotate(90 44.4997 81.6348)" fill="#591863"/>
<circle cx="44.4997" cy="93.5196" r="1.5577" transform="rotate(90 44.4997 93.5196)" fill="#591863"/>
<circle cx="44.4997" cy="105.404" r="1.5577" transform="rotate(90 44.4997 105.404)" fill="#591863"/>
<circle cx="44.4997" cy="117.289" r="1.5577" transform="rotate(90 44.4997 117.289)" fill="#591863"/>
<circle cx="31.519" cy="10.3272" r="1.5577" transform="rotate(90 31.519 10.3272)" fill="#591863"/>
<circle cx="31.519" cy="22.212" r="1.5577" transform="rotate(90 31.519 22.212)" fill="#591863"/>
<circle cx="31.519" cy="34.0968" r="1.5577" transform="rotate(90 31.519 34.0968)" fill="#591863"/>
<circle cx="31.519" cy="45.9815" r="1.5577" transform="rotate(90 31.519 45.9815)" fill="#591863"/>
<circle cx="31.519" cy="57.8653" r="1.5577" transform="rotate(90 31.519 57.8653)" fill="#591863"/>
<circle cx="31.519" cy="69.7501" r="1.5577" transform="rotate(90 31.519 69.7501)" fill="#591863"/>
<circle cx="31.519" cy="81.6348" r="1.5577" transform="rotate(90 31.519 81.6348)" fill="#591863"/>
<circle cx="31.519" cy="93.5196" r="1.5577" transform="rotate(90 31.519 93.5196)" fill="#591863"/>
<circle cx="31.519" cy="105.404" r="1.5577" transform="rotate(90 31.519 105.404)" fill="#591863"/>
<circle cx="31.519" cy="117.289" r="1.5577" transform="rotate(90 31.519 117.289)" fill="#591863"/>
<circle cx="18.5378" cy="10.3272" r="1.5577" transform="rotate(90 18.5378 10.3272)" fill="#591863"/>
<circle cx="18.5378" cy="22.212" r="1.5577" transform="rotate(90 18.5378 22.212)" fill="#591863"/>
<circle cx="18.5378" cy="34.0968" r="1.5577" transform="rotate(90 18.5378 34.0968)" fill="#591863"/>
<circle cx="18.5378" cy="45.9815" r="1.5577" transform="rotate(90 18.5378 45.9815)" fill="#591863"/>
<circle cx="18.5378" cy="57.8653" r="1.5577" transform="rotate(90 18.5378 57.8653)" fill="#591863"/>
<circle cx="18.5378" cy="69.7501" r="1.5577" transform="rotate(90 18.5378 69.7501)" fill="#591863"/>
<circle cx="18.5378" cy="81.6348" r="1.5577" transform="rotate(90 18.5378 81.6348)" fill="#591863"/>
<circle cx="18.5378" cy="93.5196" r="1.5577" transform="rotate(90 18.5378 93.5196)" fill="#591863"/>
<circle cx="18.5378" cy="105.404" r="1.5577" transform="rotate(90 18.5378 105.404)" fill="#591863"/>
<circle cx="18.5378" cy="117.289" r="1.5577" transform="rotate(90 18.5378 117.289)" fill="#591863"/>
<circle cx="5.55729" cy="10.3272" r="1.5577" transform="rotate(90 5.55729 10.3272)" fill="#591863"/>
<circle cx="5.55729" cy="22.212" r="1.5577" transform="rotate(90 5.55729 22.212)" fill="#591863"/>
<circle cx="5.55729" cy="34.0968" r="1.5577" transform="rotate(90 5.55729 34.0968)" fill="#591863"/>
<circle cx="5.55729" cy="45.9815" r="1.5577" transform="rotate(90 5.55729 45.9815)" fill="#591863"/>
<circle cx="5.55729" cy="57.8653" r="1.5577" transform="rotate(90 5.55729 57.8653)" fill="#591863"/>
<circle cx="5.55729" cy="69.7501" r="1.5577" transform="rotate(90 5.55729 69.7501)" fill="#591863"/>
<circle cx="5.55729" cy="81.6348" r="1.5577" transform="rotate(90 5.55729 81.6348)" fill="#591863"/>
<circle cx="5.55729" cy="93.5196" r="1.5577" transform="rotate(90 5.55729 93.5196)" fill="#591863"/>
<circle cx="5.55729" cy="105.404" r="1.5577" transform="rotate(90 5.55729 105.404)" fill="#591863"/>
<circle cx="5.55729" cy="117.289" r="1.5577" transform="rotate(90 5.55729 117.289)" fill="#591863"/>
</g>
<defs>
<linearGradient id="paint0_linear_1115_24063" x1="-1.9752" y1="491.857" x2="375.006" y2="492.191" gradientUnits="userSpaceOnUse">
<stop stop-color="#26102A"/>
<stop offset="0.473958" stop-color="#490E50"/>
<stop offset="1" stop-color="#7B0C70" stop-opacity="0.66"/>
</linearGradient>
<clipPath id="clip0_1115_24063">
<rect width="375" height="499" fill="white"/>
</clipPath>
</defs>
</svg>
