<svg width="15" height="241" viewBox="0 0 15 241" fill="none" xmlns="http://www.w3.org/2000/svg">
<path d="M10.8047 7.29688C10.987 7.48958 11.0781 7.6875 11.0781 7.89062C11.0781 8.11979 10.9948 8.30729 10.8281 8.45312C10.6667 8.60417 10.3958 8.67969 10.0156 8.67969H8.98438C8.59896 8.67969 8.32552 8.60417 8.16406 8.45312C8.0026 8.30729 7.92188 8.11458 7.92188 7.875C7.92188 7.65625 7.98438 7.47135 8.10938 7.32031C8.20312 7.21094 8.39323 7.125 8.67969 7.0625C8.97135 7 9.1875 6.84896 9.32812 6.60938C9.57812 6.1875 9.70312 5.64844 9.70312 4.99219C9.70312 4.23698 9.48177 3.63021 9.03906 3.17188C8.59635 2.71875 8.03646 2.49219 7.35938 2.49219C6.73438 2.49219 6.23958 2.71094 5.875 3.14844C5.51562 3.58594 5.33594 4.3125 5.33594 5.32813C5.33594 5.99479 5.40365 6.53906 5.53906 6.96094C5.6224 7.21094 5.76302 7.44792 5.96094 7.67188C6.16406 7.89583 6.26563 8.09896 6.26563 8.28125C6.26563 8.5 6.1849 8.6875 6.02344 8.84375C5.86198 9.00521 5.67188 9.08594 5.45313 9.08594C5.09896 9.08594 4.76302 8.84375 4.44531 8.35938C3.97135 7.64063 3.73438 6.58854 3.73438 5.20313C3.73438 3.95833 3.99219 2.98958 4.50781 2.29688C5.20052 1.35938 6.14844 0.890625 7.35156 0.890625C8.49219 0.890625 9.4349 1.27083 10.1797 2.03125C10.9297 2.79167 11.3047 3.78385 11.3047 5.00781C11.3047 5.45052 11.263 5.86198 11.1797 6.24219C11.0964 6.6224 10.9714 6.97396 10.8047 7.29688ZM4 15.8516H4.375C4.16146 15.4505 4.0026 15.0078 3.89844 14.5234C3.78906 14.0391 3.73438 13.599 3.73438 13.2031C3.73438 12.3438 3.96094 11.6458 4.41406 11.1094C4.8724 10.5729 5.3776 10.3047 5.92969 10.3047C6.60156 10.3047 7.22396 10.6458 7.79688 11.3281C8.375 12.0156 8.66406 12.9635 8.66406 14.1719C8.66406 14.6562 8.61198 15.2161 8.50781 15.8516H8.89063C9.13021 15.8516 9.32552 15.7474 9.47656 15.5391C9.6276 15.3359 9.70313 14.9453 9.70313 14.3672C9.70313 13.8932 9.60938 13.2786 9.42188 12.5234C9.35417 12.2422 9.32031 12.0234 9.32031 11.8672C9.32031 11.6536 9.39583 11.4714 9.54688 11.3203C9.70312 11.1745 9.90104 11.1016 10.1406 11.1016C10.276 11.1016 10.3932 11.1276 10.4922 11.1797C10.5911 11.2318 10.6693 11.3047 10.7266 11.3984C10.7891 11.4922 10.862 11.6875 10.9453 11.9844C11.0547 12.3802 11.1406 12.7839 11.2031 13.1953C11.2708 13.6068 11.3047 13.9792 11.3047 14.3125C11.3047 15.3073 11.0885 16.0781 10.6563 16.625C10.2292 17.1771 9.64323 17.4531 8.89844 17.4531H5.60156V17.7266C5.60156 18.112 5.52604 18.3854 5.375 18.5469C5.22917 18.7135 5.03646 18.7969 4.79688 18.7969C4.5625 18.7969 4.36979 18.7135 4.21875 18.5469C4.07292 18.3854 4 18.112 4 17.7266V15.8516ZM6.86719 15.8516C6.99219 15.2109 7.05469 14.6198 7.05469 14.0781C7.05469 13.4271 6.89583 12.8672 6.57813 12.3984C6.375 12.1068 6.16927 11.9609 5.96094 11.9609C5.8099 11.9609 5.6875 12.0312 5.59375 12.1719C5.42188 12.4323 5.33594 12.7891 5.33594 13.2422C5.33594 13.6276 5.41146 14.0625 5.5625 14.5469C5.71354 15.0365 5.91927 15.4714 6.17969 15.8516H6.86719ZM9.21875 25.75C9.38021 25.4896 9.5 25.2161 9.57813 24.9297C9.66146 24.6432 9.70313 24.3438 9.70313 24.0312C9.70313 23.4115 9.60156 22.9193 9.39844 22.5547C9.3099 22.3932 9.21354 22.3125 9.10938 22.3125C8.98958 22.3125 8.8724 22.4219 8.75781 22.6406C8.67448 22.8073 8.59375 23.1797 8.51563 23.7578C8.36979 24.8203 8.22396 25.5599 8.07813 25.9766C7.88542 26.5234 7.59896 26.9453 7.21875 27.2422C6.83854 27.5391 6.4375 27.6875 6.01563 27.6875C5.44271 27.6875 4.96354 27.4349 4.57813 26.9297C4.02083 26.2057 3.74219 25.2656 3.74219 24.1094C3.74219 23.6458 3.78385 23.2161 3.86719 22.8203C3.94531 22.4297 4.0625 22.0703 4.21875 21.7422C4.15104 21.6641 4.09896 21.5807 4.0625 21.4922C4.02604 21.4036 4.00781 21.3125 4.00781 21.2188C4.00781 20.9688 4.08854 20.7682 4.25 20.6172C4.41667 20.4714 4.69271 20.3984 5.07813 20.3984H5.61719C6.0026 20.3984 6.27604 20.4714 6.4375 20.6172C6.60417 20.7682 6.6875 20.9635 6.6875 21.2031C6.6875 21.3958 6.63281 21.5573 6.52344 21.6875C6.41927 21.8177 6.23698 21.9193 5.97656 21.9922C5.76823 22.237 5.60938 22.5312 5.5 22.875C5.39583 23.2188 5.34375 23.6146 5.34375 24.0625C5.34375 24.7969 5.45833 25.3672 5.6875 25.7734C5.80208 25.9661 5.92188 26.0625 6.04688 26.0625C6.25521 26.0625 6.42708 25.9245 6.5625 25.6484C6.69792 25.3724 6.8125 24.8021 6.90625 23.9375C7.04167 22.651 7.30208 21.7917 7.6875 21.3594C8.06771 20.9271 8.53646 20.7109 9.09375 20.7109C9.66667 20.7109 10.1432 20.9531 10.5234 21.4375C11.0443 22.0938 11.3047 22.9531 11.3047 24.0156C11.3047 24.3854 11.2682 24.7396 11.1953 25.0781C11.1276 25.4219 11.0208 25.75 10.875 26.0625C10.9479 26.1615 11.0026 26.2526 11.0391 26.3359C11.0755 26.4245 11.0938 26.5052 11.0938 26.5781C11.0938 26.7969 11.0104 26.9792 10.8438 27.125C10.6823 27.2708 10.4089 27.3438 10.0234 27.3438H9.63281C9.28385 27.3438 9.04688 27.3021 8.92188 27.2188C8.68229 27.0521 8.5625 26.8255 8.5625 26.5391C8.5625 26.3464 8.6224 26.1771 8.74219 26.0312C8.86198 25.8854 9.02083 25.7917 9.21875 25.75ZM6.73438 37.6484L6.73438 31.0781C6.31771 31.2448 5.98177 31.5391 5.72656 31.9609C5.47135 32.388 5.34375 32.9635 5.34375 33.6875C5.34375 34.2812 5.47135 35.0703 5.72656 36.0547C5.83073 36.4609 5.88281 36.7422 5.88281 36.8984C5.88281 37.112 5.80729 37.2917 5.65625 37.4375C5.50521 37.5833 5.3151 37.6562 5.08594 37.6562C4.8776 37.6562 4.70052 37.5781 4.55469 37.4219C4.36198 37.2135 4.17708 36.7057 4 35.8984C3.82813 35.0911 3.74219 34.3151 3.74219 33.5703C3.74219 32.2891 4.10417 31.263 4.82813 30.4922C5.55208 29.7266 6.44271 29.3438 7.5 29.3438C8.625 29.3438 9.53906 29.7578 10.2422 30.5859C10.9505 31.4193 11.3047 32.3776 11.3047 33.4609C11.3047 34.112 11.1901 34.7083 10.9609 35.25C10.7318 35.7969 10.4844 36.2031 10.2188 36.4688C9.83333 36.8438 9.35677 37.1536 8.78906 37.3984C8.39323 37.5651 7.9349 37.6484 7.41406 37.6484H6.73438ZM8.33594 35.875C8.79427 35.6302 9.13542 35.3099 9.35938 34.9141C9.58854 34.5182 9.70313 34.0469 9.70313 33.5C9.70313 32.9583 9.58854 32.4896 9.35938 32.0938C9.13542 31.6979 8.79427 31.375 8.33594 31.125V35.875ZM11.0938 42.9062H10.0938C10.5781 43.5781 10.901 44.1068 11.0625 44.4922C11.224 44.8828 11.3047 45.2474 11.3047 45.5859C11.3047 46.1068 11.112 46.612 10.7266 47.1016C10.4661 47.4349 10.2005 47.6016 9.92969 47.6016C9.70052 47.6016 9.50521 47.5208 9.34375 47.3594C9.1875 47.2031 9.10938 47.013 9.10938 46.7891C9.10938 46.5911 9.20833 46.3828 9.40625 46.1641C9.60417 45.9453 9.70313 45.75 9.70313 45.5781C9.70313 45.3542 9.5625 45.0182 9.28125 44.5703C9 44.1276 8.57813 43.5729 8.01563 42.9062H5.60156V45.1875C5.60156 45.5729 5.52604 45.8464 5.375 46.0078C5.22917 46.1745 5.03646 46.2578 4.79688 46.2578C4.5625 46.2578 4.36979 46.1745 4.21875 46.0078C4.07292 45.8464 4 45.5729 4 45.1875V40.3516C4 39.9661 4.07292 39.6901 4.21875 39.5234C4.36979 39.362 4.5651 39.2812 4.80469 39.2812C5.03906 39.2812 5.22917 39.362 5.375 39.5234C5.52604 39.6901 5.60156 39.9661 5.60156 40.3516V41.3047H9.49219V40.7266C9.49219 40.3411 9.5651 40.0651 9.71094 39.8984C9.86198 39.737 10.0573 39.6562 10.2969 39.6562C10.5313 39.6562 10.7214 39.737 10.8672 39.8984C11.0182 40.0651 11.0938 40.3411 11.0938 40.7266V42.9062ZM14.1328 53.4219H12.4375V51.5156H14.1328V53.4219ZM11.0938 53.6406H5.60156V55.5625C5.60156 55.9479 5.52604 56.2214 5.375 56.3828C5.22917 56.5495 5.03646 56.6328 4.79688 56.6328C4.5625 56.6328 4.36979 56.5495 4.21875 56.3828C4.07292 56.2214 4 55.9479 4 55.5625V50.1172C4 49.7318 4.07292 49.4557 4.21875 49.2891C4.36979 49.1276 4.5651 49.0469 4.80469 49.0469C5.03906 49.0469 5.22917 49.1276 5.375 49.2891C5.52604 49.4557 5.60156 49.7318 5.60156 50.1172L5.60156 52.0391H9.49219V50.75C9.49219 50.3698 9.5651 50.0964 9.71094 49.9297C9.86198 49.763 10.0573 49.6797 10.2969 49.6797C10.5313 49.6797 10.7214 49.7604 10.8672 49.9219C11.0182 50.0885 11.0938 50.3646 11.0938 50.75V53.6406ZM4 63.8984H4.375C4.16146 63.4974 4.0026 63.0547 3.89844 62.5703C3.78906 62.0859 3.73438 61.6458 3.73438 61.25C3.73438 60.3906 3.96094 59.6927 4.41406 59.1562C4.8724 58.6198 5.3776 58.3516 5.92969 58.3516C6.60156 58.3516 7.22396 58.6927 7.79688 59.375C8.375 60.0625 8.66406 61.0104 8.66406 62.2188C8.66406 62.7031 8.61198 63.263 8.50781 63.8984H8.89063C9.13021 63.8984 9.32552 63.7943 9.47656 63.5859C9.6276 63.3828 9.70313 62.9922 9.70313 62.4141C9.70313 61.9401 9.60938 61.3255 9.42188 60.5703C9.35417 60.2891 9.32031 60.0703 9.32031 59.9141C9.32031 59.7005 9.39583 59.5182 9.54688 59.3672C9.70313 59.2214 9.90104 59.1484 10.1406 59.1484C10.276 59.1484 10.3932 59.1745 10.4922 59.2266C10.5911 59.2786 10.6693 59.3516 10.7266 59.4453C10.7891 59.5391 10.862 59.7344 10.9453 60.0312C11.0547 60.4271 11.1406 60.8307 11.2031 61.2422C11.2708 61.6536 11.3047 62.026 11.3047 62.3594C11.3047 63.3542 11.0885 64.125 10.6563 64.6719C10.2292 65.224 9.64323 65.5 8.89844 65.5H5.60156V65.7734C5.60156 66.1589 5.52604 66.4323 5.375 66.5938C5.22917 66.7604 5.03646 66.8438 4.79688 66.8438C4.5625 66.8438 4.36979 66.7604 4.21875 66.5938C4.07292 66.4323 4 66.1589 4 65.7734L4 63.8984ZM6.86719 63.8984C6.99219 63.2578 7.05469 62.6667 7.05469 62.125C7.05469 61.474 6.89583 60.9141 6.57813 60.4453C6.375 60.1536 6.16927 60.0078 5.96094 60.0078C5.8099 60.0078 5.6875 60.0781 5.59375 60.2188C5.42188 60.4792 5.33594 60.8359 5.33594 61.2891C5.33594 61.6745 5.41146 62.1094 5.5625 62.5938C5.71354 63.0833 5.91927 63.5182 6.17969 63.8984H6.86719ZM4.80469 73.2891C4.5026 73.2891 4.25 73.1823 4.04688 72.9688C3.84375 72.7552 3.74219 72.4609 3.74219 72.0859C3.74219 71.7109 3.84375 71.4167 4.04688 71.2031C4.25 70.9896 4.5026 70.8828 4.80469 70.8828C5.10677 70.8828 5.35938 70.9896 5.5625 71.2031C5.76563 71.4167 5.86719 71.7109 5.86719 72.0859C5.86719 72.4609 5.76563 72.7552 5.5625 72.9688C5.35938 73.1823 5.10677 73.2891 4.80469 73.2891ZM9.49219 81.2812H6.28125C5.9375 81.2812 5.71094 81.3516 5.60156 81.4922C5.42969 81.7109 5.34375 82.1016 5.34375 82.6641C5.34375 83.4818 5.51823 84.237 5.86719 84.9297C6.0026 85.1953 6.07031 85.4036 6.07031 85.5547C6.07031 85.763 5.99219 85.9427 5.83594 86.0938C5.67969 86.25 5.48958 86.3281 5.26563 86.3281C5.05729 86.3281 4.8776 86.2448 4.72656 86.0781C4.48177 85.8229 4.25521 85.3177 4.04688 84.5625C3.84375 83.8125 3.74219 83.1797 3.74219 82.6641C3.74219 81.6693 3.95573 80.9219 4.38281 80.4219C4.8151 79.9271 5.34375 79.6797 5.96875 79.6797H9.49219V79.1016C9.49219 78.7161 9.5651 78.4401 9.71094 78.2734C9.86198 78.112 10.0573 78.0312 10.2969 78.0312C10.5313 78.0312 10.7214 78.112 10.8672 78.2734C11.0182 78.4401 11.0938 78.7161 11.0938 79.1016V79.6797H12.5391C12.9245 79.6797 13.1979 79.7526 13.3594 79.8984C13.526 80.0495 13.6094 80.2448 13.6094 80.4844C13.6094 80.7188 13.526 80.9089 13.3594 81.0547C13.1979 81.2057 12.9245 81.2812 12.5391 81.2812H11.0938V84.2422C11.0938 84.6276 11.0182 84.901 10.8672 85.0625C10.7214 85.2292 10.5286 85.3125 10.2891 85.3125C10.0547 85.3125 9.86198 85.2292 9.71094 85.0625C9.5651 84.901 9.49219 84.6276 9.49219 84.2422V81.2812ZM14.1328 89.6328H10.7188C10.9167 89.9661 11.0625 90.3021 11.1563 90.6406C11.2552 90.9844 11.3047 91.3307 11.3047 91.6797C11.3047 92.2318 11.2109 92.724 11.0234 93.1562C10.8359 93.5885 10.5391 93.9453 10.1328 94.2266C9.73177 94.513 9.22396 94.6562 8.60938 94.6562H5.60156C5.60156 95.0625 5.5625 95.3281 5.48438 95.4531C5.32292 95.7031 5.09375 95.8281 4.79688 95.8281C4.5625 95.8281 4.36979 95.7474 4.21875 95.5859C4.07292 95.4245 4 95.151 4 94.7656V92.9375C4 92.5573 4.07292 92.2839 4.21875 92.1172C4.36979 91.9557 4.5651 91.875 4.80469 91.875C5.09635 91.875 5.32292 92 5.48438 92.25C5.56771 92.3802 5.60677 92.6458 5.60156 93.0469H8.5C8.91146 93.0469 9.20052 92.9531 9.36719 92.7656C9.59115 92.5208 9.70313 92.1589 9.70313 91.6797C9.70313 91.3255 9.63281 91.0104 9.49219 90.7344C9.35677 90.4635 9.0599 90.0964 8.60156 89.6328H5.60156C5.60156 90.0443 5.5625 90.3099 5.48438 90.4297C5.32292 90.6849 5.09375 90.8125 4.79688 90.8125C4.5625 90.8125 4.36979 90.7292 4.21875 90.5625C4.07292 90.401 4 90.1276 4 89.7422V87.9219C4 87.5365 4.07292 87.2604 4.21875 87.0938C4.36979 86.9323 4.5651 86.8516 4.80469 86.8516C5.09635 86.8516 5.32292 86.9792 5.48438 87.2344C5.56771 87.3594 5.60677 87.625 5.60156 88.0312H12.5313V87.7578C12.5313 87.3724 12.6042 87.0964 12.75 86.9297C12.901 86.7682 13.0964 86.6875 13.3359 86.6875C13.5703 86.6875 13.7604 86.7682 13.9063 86.9297C14.0573 87.0964 14.1328 87.3724 14.1328 87.7578V89.6328ZM6.73438 104.914L6.73438 98.3438C6.31771 98.5104 5.98177 98.8047 5.72656 99.2266C5.47135 99.6536 5.34375 100.229 5.34375 100.953C5.34375 101.547 5.47135 102.336 5.72656 103.32C5.83073 103.727 5.88281 104.008 5.88281 104.164C5.88281 104.378 5.80729 104.557 5.65625 104.703C5.50521 104.849 5.3151 104.922 5.08594 104.922C4.8776 104.922 4.70052 104.844 4.55469 104.688C4.36198 104.479 4.17708 103.971 4 103.164C3.82813 102.357 3.74219 101.581 3.74219 100.836C3.74219 99.5547 4.10417 98.5286 4.82813 97.7578C5.55208 96.9922 6.44271 96.6094 7.5 96.6094C8.625 96.6094 9.53906 97.0234 10.2422 97.8516C10.9505 98.6849 11.3047 99.6432 11.3047 100.727C11.3047 101.378 11.1901 101.974 10.9609 102.516C10.7318 103.062 10.4844 103.469 10.2188 103.734C9.83333 104.109 9.35677 104.419 8.78906 104.664C8.39323 104.831 7.9349 104.914 7.41406 104.914H6.73438ZM8.33594 103.141C8.79427 102.896 9.13542 102.576 9.35938 102.18C9.58854 101.784 9.70313 101.312 9.70313 100.766C9.70313 100.224 9.58854 99.7552 9.35938 99.3594C9.13542 98.9635 8.79427 98.6406 8.33594 98.3906L8.33594 103.141ZM11.0938 110.172H10.0938C10.5781 110.844 10.901 111.372 11.0625 111.758C11.224 112.148 11.3047 112.513 11.3047 112.852C11.3047 113.372 11.112 113.878 10.7266 114.367C10.4661 114.701 10.2005 114.867 9.92969 114.867C9.70052 114.867 9.50521 114.786 9.34375 114.625C9.1875 114.469 9.10938 114.279 9.10938 114.055C9.10938 113.857 9.20833 113.648 9.40625 113.43C9.60417 113.211 9.70313 113.016 9.70313 112.844C9.70313 112.62 9.5625 112.284 9.28125 111.836C9 111.393 8.57813 110.839 8.01563 110.172H5.60156V112.453C5.60156 112.839 5.52604 113.112 5.375 113.273C5.22917 113.44 5.03646 113.523 4.79688 113.523C4.5625 113.523 4.36979 113.44 4.21875 113.273C4.07292 113.112 4 112.839 4 112.453V107.617C4 107.232 4.07292 106.956 4.21875 106.789C4.36979 106.628 4.5651 106.547 4.80469 106.547C5.03906 106.547 5.22917 106.628 5.375 106.789C5.52604 106.956 5.60156 107.232 5.60156 107.617L5.60156 108.57H9.49219V107.992C9.49219 107.607 9.5651 107.331 9.71094 107.164C9.86198 107.003 10.0573 106.922 10.2969 106.922C10.5313 106.922 10.7214 107.003 10.8672 107.164C11.0182 107.331 11.0938 107.607 11.0938 107.992V110.172ZM6.73438 124.133V117.562C6.31771 117.729 5.98177 118.023 5.72656 118.445C5.47135 118.872 5.34375 119.448 5.34375 120.172C5.34375 120.766 5.47135 121.555 5.72656 122.539C5.83073 122.945 5.88281 123.227 5.88281 123.383C5.88281 123.596 5.80729 123.776 5.65625 123.922C5.50521 124.068 5.3151 124.141 5.08594 124.141C4.8776 124.141 4.70052 124.062 4.55469 123.906C4.36198 123.698 4.17708 123.19 4 122.383C3.82813 121.576 3.74219 120.799 3.74219 120.055C3.74219 118.773 4.10417 117.747 4.82813 116.977C5.55208 116.211 6.44271 115.828 7.5 115.828C8.625 115.828 9.53906 116.242 10.2422 117.07C10.9505 117.904 11.3047 118.862 11.3047 119.945C11.3047 120.596 11.1901 121.193 10.9609 121.734C10.7318 122.281 10.4844 122.688 10.2188 122.953C9.83333 123.328 9.35677 123.638 8.78906 123.883C8.39323 124.049 7.9349 124.133 7.41406 124.133H6.73438ZM8.33594 122.359C8.79427 122.115 9.13542 121.794 9.35938 121.398C9.58854 121.003 9.70313 120.531 9.70313 119.984C9.70313 119.443 9.58854 118.974 9.35938 118.578C9.13542 118.182 8.79427 117.859 8.33594 117.609V122.359ZM9.21875 131.453C9.38021 131.193 9.5 130.919 9.57813 130.633C9.66146 130.346 9.70313 130.047 9.70313 129.734C9.70313 129.115 9.60156 128.622 9.39844 128.258C9.3099 128.096 9.21354 128.016 9.10938 128.016C8.98958 128.016 8.8724 128.125 8.75781 128.344C8.67448 128.51 8.59375 128.883 8.51563 129.461C8.36979 130.523 8.22396 131.263 8.07813 131.68C7.88542 132.227 7.59896 132.648 7.21875 132.945C6.83854 133.242 6.4375 133.391 6.01563 133.391C5.44271 133.391 4.96354 133.138 4.57813 132.633C4.02083 131.909 3.74219 130.969 3.74219 129.812C3.74219 129.349 3.78385 128.919 3.86719 128.523C3.94531 128.133 4.0625 127.773 4.21875 127.445C4.15104 127.367 4.09896 127.284 4.0625 127.195C4.02604 127.107 4.00781 127.016 4.00781 126.922C4.00781 126.672 4.08854 126.471 4.25 126.32C4.41667 126.174 4.69271 126.102 5.07813 126.102H5.61719C6.0026 126.102 6.27604 126.174 6.4375 126.32C6.60417 126.471 6.6875 126.667 6.6875 126.906C6.6875 127.099 6.63281 127.26 6.52344 127.391C6.41927 127.521 6.23698 127.622 5.97656 127.695C5.76823 127.94 5.60938 128.234 5.5 128.578C5.39583 128.922 5.34375 129.318 5.34375 129.766C5.34375 130.5 5.45833 131.07 5.6875 131.477C5.80208 131.669 5.92188 131.766 6.04688 131.766C6.25521 131.766 6.42708 131.628 6.5625 131.352C6.69792 131.076 6.8125 130.505 6.90625 129.641C7.04167 128.354 7.30208 127.495 7.6875 127.062C8.06771 126.63 8.53646 126.414 9.09375 126.414C9.66667 126.414 10.1432 126.656 10.5234 127.141C11.0443 127.797 11.3047 128.656 11.3047 129.719C11.3047 130.089 11.2682 130.443 11.1953 130.781C11.1276 131.125 11.0208 131.453 10.875 131.766C10.9479 131.865 11.0026 131.956 11.0391 132.039C11.0755 132.128 11.0938 132.208 11.0938 132.281C11.0938 132.5 11.0104 132.682 10.8438 132.828C10.6823 132.974 10.4089 133.047 10.0234 133.047H9.63281C9.28385 133.047 9.04688 133.005 8.92188 132.922C8.68229 132.755 8.5625 132.529 8.5625 132.242C8.5625 132.049 8.6224 131.88 8.74219 131.734C8.86198 131.589 9.02083 131.495 9.21875 131.453ZM6.73438 143.352V136.781C6.31771 136.948 5.98177 137.242 5.72656 137.664C5.47135 138.091 5.34375 138.667 5.34375 139.391C5.34375 139.984 5.47135 140.773 5.72656 141.758C5.83073 142.164 5.88281 142.445 5.88281 142.602C5.88281 142.815 5.80729 142.995 5.65625 143.141C5.50521 143.286 5.3151 143.359 5.08594 143.359C4.8776 143.359 4.70052 143.281 4.55469 143.125C4.36198 142.917 4.17708 142.409 4 141.602C3.82813 140.794 3.74219 140.018 3.74219 139.273C3.74219 137.992 4.10417 136.966 4.82813 136.195C5.55208 135.43 6.44271 135.047 7.5 135.047C8.625 135.047 9.53906 135.461 10.2422 136.289C10.9505 137.122 11.3047 138.081 11.3047 139.164C11.3047 139.815 11.1901 140.411 10.9609 140.953C10.7318 141.5 10.4844 141.906 10.2188 142.172C9.83333 142.547 9.35677 142.857 8.78906 143.102C8.39323 143.268 7.9349 143.352 7.41406 143.352H6.73438ZM8.33594 141.578C8.79427 141.333 9.13542 141.013 9.35938 140.617C9.58854 140.221 9.70313 139.75 9.70313 139.203C9.70313 138.661 9.58854 138.193 9.35938 137.797C9.13542 137.401 8.79427 137.078 8.33594 136.828V141.578ZM10.9844 150.578H11.4766C11.9922 150.578 12.4063 150.427 12.7188 150.125C13.0313 149.828 13.1875 149.445 13.1875 148.977C13.1875 148.602 13.0625 148.247 12.8125 147.914C12.5677 147.586 12.25 147.339 11.8594 147.172C11.1667 146.875 10.474 146.727 9.78125 146.727H7.40625C6.20313 146.727 5.2474 146.997 4.53906 147.539C4.07552 147.893 3.84375 148.388 3.84375 149.023C3.84375 149.362 3.88802 149.672 3.97656 149.953C4.0651 150.24 4.1875 150.461 4.34375 150.617C4.5 150.773 4.57813 150.917 4.57813 151.047C4.57813 151.219 4.51823 151.362 4.39844 151.477C4.28385 151.591 4.14063 151.648 3.96875 151.648C3.70833 151.648 3.45313 151.469 3.20313 151.109C2.84896 150.589 2.67188 149.878 2.67188 148.977C2.67188 148.289 2.82813 147.721 3.14063 147.273C3.54688 146.695 4.14583 146.263 4.9375 145.977C5.72917 145.69 6.51563 145.547 7.29688 145.547H9.86719C11.1172 145.547 12.1797 145.857 13.0547 146.477C13.9297 147.096 14.3672 147.922 14.3672 148.953C14.3672 149.417 14.2708 149.854 14.0781 150.266C13.8854 150.677 13.5495 151.029 13.0703 151.32C12.5911 151.612 12.0599 151.758 11.4766 151.758H7.20313C7.09896 151.987 6.92448 152.102 6.67969 152.102C6.4974 152.102 6.34896 152.039 6.23438 151.914C6.125 151.789 6.07031 151.578 6.07031 151.281V150.578H6.11719C6.08073 150.333 6.0625 150.154 6.0625 150.039C6.0625 149.414 6.29427 148.867 6.75781 148.398C7.22135 147.935 7.76563 147.703 8.39063 147.703C9.05729 147.703 9.64063 147.958 10.1406 148.469C10.6458 148.984 10.9271 149.688 10.9844 150.578ZM9.77344 150.578C9.72135 150.026 9.5599 149.604 9.28906 149.312C9.02344 149.021 8.71875 148.875 8.375 148.875C8.07813 148.875 7.82031 148.995 7.60156 149.234C7.38281 149.479 7.27344 149.799 7.27344 150.195C7.27344 150.273 7.28125 150.401 7.29688 150.578H9.77344ZM10.6172 160.312H11.0938L11.0938 162.188C11.0938 162.573 11.0182 162.846 10.8672 163.008C10.7214 163.174 10.5286 163.258 10.2891 163.258C10.0547 163.258 9.86198 163.174 9.71094 163.008C9.5651 162.846 9.49219 162.573 9.49219 162.188V161.914H3.66406C3.10156 161.914 2.61198 161.794 2.19531 161.555C1.77344 161.32 1.41146 160.958 1.10938 160.469C0.807292 159.979 0.65625 159.427 0.65625 158.812V157C0.65625 156.615 0.731771 156.339 0.882813 156.172C1.02865 156.01 1.21875 155.93 1.45313 155.93C1.69271 155.93 1.88802 156.01 2.03906 156.172C2.1849 156.339 2.25781 156.615 2.25781 157V158.766C2.25781 159.255 2.39063 159.635 2.65625 159.906C2.92188 160.177 3.25781 160.312 3.66406 160.312H4.44531C4.21615 159.958 4.04427 159.596 3.92969 159.227C3.8151 158.862 3.75781 158.487 3.75781 158.102C3.75781 157.013 4.11979 156.102 4.84375 155.367C5.57292 154.633 6.47135 154.266 7.53906 154.266C8.61198 154.266 9.51042 154.633 10.2344 155.367C10.9635 156.102 11.3281 157.013 11.3281 158.102C11.3281 158.508 11.2682 158.893 11.1484 159.258C11.0339 159.628 10.8568 159.979 10.6172 160.312ZM7.54688 160.305C8.13542 160.305 8.64583 160.086 9.07813 159.648C9.51042 159.216 9.72656 158.695 9.72656 158.086C9.72656 157.477 9.51042 156.953 9.07813 156.516C8.64583 156.083 8.13542 155.867 7.54688 155.867C6.95313 155.867 6.4401 156.083 6.00781 156.516C5.58073 156.953 5.36719 157.477 5.36719 158.086C5.36719 158.695 5.58073 159.216 6.00781 159.648C6.4401 160.086 6.95313 160.305 7.54688 160.305ZM11.0938 165.688H10.6406C10.8958 165.948 11.0703 166.182 11.1641 166.391C11.263 166.604 11.3125 166.849 11.3125 167.125C11.3125 167.359 11.2552 167.591 11.1406 167.82C11.026 168.049 10.8542 168.273 10.625 168.492C10.8542 168.768 11.0234 169.047 11.1328 169.328C11.2474 169.615 11.3047 169.906 11.3047 170.203C11.3047 170.797 11.1458 171.279 10.8281 171.648C10.4115 172.138 9.86458 172.383 9.1875 172.383H5.60156C5.60156 172.716 5.52604 172.964 5.375 173.125C5.22396 173.286 5.03125 173.367 4.79688 173.367C4.5625 173.367 4.36979 173.286 4.21875 173.125C4.07292 172.964 4 172.69 4 172.305V170.781H9.05469C9.29948 170.781 9.46875 170.737 9.5625 170.648C9.65625 170.56 9.70313 170.424 9.70313 170.242C9.70313 170.065 9.65625 169.901 9.5625 169.75C9.43229 169.557 9.1875 169.323 8.82813 169.047H5.60156C5.60156 169.38 5.52604 169.628 5.375 169.789C5.22396 169.951 5.03125 170.031 4.79688 170.031C4.5625 170.031 4.36979 169.951 4.21875 169.789C4.07292 169.628 4 169.354 4 168.969V167.445H9.05469C9.29427 167.445 9.46094 167.398 9.55469 167.305C9.65365 167.216 9.70313 167.081 9.70313 166.898C9.70313 166.711 9.64323 166.526 9.52344 166.344C9.40885 166.161 9.17708 165.943 8.82813 165.688H5.60156C5.60156 166.021 5.52604 166.268 5.375 166.43C5.22396 166.596 5.03125 166.68 4.79688 166.68C4.5625 166.68 4.36979 166.596 4.21875 166.43C4.07292 166.268 4 165.995 4 165.609V164.164C4 163.779 4.07292 163.505 4.21875 163.344C4.36979 163.177 4.5651 163.094 4.80469 163.094C5.03906 163.094 5.22917 163.174 5.375 163.336C5.52604 163.497 5.60156 163.747 5.60156 164.086H9.49219C9.49219 163.747 9.56771 163.497 9.71875 163.336C9.86979 163.174 10.0625 163.094 10.2969 163.094C10.5313 163.094 10.7214 163.177 10.8672 163.344C11.0182 163.505 11.0938 163.779 11.0938 164.164V165.688ZM4 179.211H4.375C4.16146 178.81 4.0026 178.367 3.89844 177.883C3.78906 177.398 3.73438 176.958 3.73438 176.562C3.73438 175.703 3.96094 175.005 4.41406 174.469C4.8724 173.932 5.3776 173.664 5.92969 173.664C6.60156 173.664 7.22396 174.005 7.79688 174.688C8.375 175.375 8.66406 176.323 8.66406 177.531C8.66406 178.016 8.61198 178.576 8.50781 179.211H8.89063C9.13021 179.211 9.32552 179.107 9.47656 178.898C9.6276 178.695 9.70313 178.305 9.70313 177.727C9.70313 177.253 9.60938 176.638 9.42188 175.883C9.35417 175.602 9.32031 175.383 9.32031 175.227C9.32031 175.013 9.39583 174.831 9.54688 174.68C9.70313 174.534 9.90104 174.461 10.1406 174.461C10.276 174.461 10.3932 174.487 10.4922 174.539C10.5911 174.591 10.6693 174.664 10.7266 174.758C10.7891 174.852 10.862 175.047 10.9453 175.344C11.0547 175.74 11.1406 176.143 11.2031 176.555C11.2708 176.966 11.3047 177.339 11.3047 177.672C11.3047 178.667 11.0885 179.438 10.6563 179.984C10.2292 180.536 9.64323 180.812 8.89844 180.812H5.60156V181.086C5.60156 181.471 5.52604 181.745 5.375 181.906C5.22917 182.073 5.03646 182.156 4.79688 182.156C4.5625 182.156 4.36979 182.073 4.21875 181.906C4.07292 181.745 4 181.471 4 181.086V179.211ZM6.86719 179.211C6.99219 178.57 7.05469 177.979 7.05469 177.438C7.05469 176.786 6.89583 176.227 6.57813 175.758C6.375 175.466 6.16927 175.32 5.96094 175.32C5.8099 175.32 5.6875 175.391 5.59375 175.531C5.42188 175.792 5.33594 176.148 5.33594 176.602C5.33594 176.987 5.41146 177.422 5.5625 177.906C5.71354 178.396 5.91927 178.831 6.17969 179.211H6.86719ZM14.1328 187.953H12.4375V186.047H14.1328V187.953ZM11.0938 188.172H5.60156V190.094C5.60156 190.479 5.52604 190.753 5.375 190.914C5.22917 191.081 5.03646 191.164 4.79688 191.164C4.5625 191.164 4.36979 191.081 4.21875 190.914C4.07292 190.753 4 190.479 4 190.094V184.648C4 184.263 4.07292 183.987 4.21875 183.82C4.36979 183.659 4.5651 183.578 4.80469 183.578C5.03906 183.578 5.22917 183.659 5.375 183.82C5.52604 183.987 5.60156 184.263 5.60156 184.648V186.57H9.49219V185.281C9.49219 184.901 9.5651 184.628 9.71094 184.461C9.86198 184.294 10.0573 184.211 10.2969 184.211C10.5313 184.211 10.7214 184.292 10.8672 184.453C11.0182 184.62 11.0938 184.896 11.0938 185.281V188.172ZM14.1328 197.789H5.60156V199.711C5.60156 200.096 5.52604 200.37 5.375 200.531C5.22917 200.698 5.03646 200.781 4.79688 200.781C4.5625 200.781 4.36979 200.698 4.21875 200.531C4.07292 200.37 4 200.096 4 199.711L4 194.266C4 193.88 4.07292 193.604 4.21875 193.438C4.36979 193.276 4.5651 193.195 4.80469 193.195C5.03906 193.195 5.22917 193.276 5.375 193.438C5.52604 193.604 5.60156 193.88 5.60156 194.266V196.188H12.5313V194.898C12.5313 194.518 12.6042 194.245 12.75 194.078C12.901 193.911 13.0964 193.828 13.3359 193.828C13.5703 193.828 13.7604 193.909 13.9063 194.07C14.0573 194.237 14.1328 194.513 14.1328 194.898V197.789ZM4.80469 207.82C4.5026 207.82 4.25 207.714 4.04688 207.5C3.84375 207.286 3.74219 206.992 3.74219 206.617C3.74219 206.242 3.84375 205.948 4.04688 205.734C4.25 205.521 4.5026 205.414 4.80469 205.414C5.10677 205.414 5.35938 205.521 5.5625 205.734C5.76563 205.948 5.86719 206.242 5.86719 206.617C5.86719 206.992 5.76563 207.286 5.5625 207.5C5.35938 207.714 5.10677 207.82 4.80469 207.82ZM10.8047 218.703C10.987 218.896 11.0781 219.094 11.0781 219.297C11.0781 219.526 10.9948 219.714 10.8281 219.859C10.6667 220.01 10.3958 220.086 10.0156 220.086H8.98438C8.59896 220.086 8.32552 220.01 8.16406 219.859C8.0026 219.714 7.92188 219.521 7.92188 219.281C7.92188 219.062 7.98438 218.878 8.10938 218.727C8.20313 218.617 8.39323 218.531 8.67969 218.469C8.97135 218.406 9.1875 218.255 9.32813 218.016C9.57813 217.594 9.70313 217.055 9.70313 216.398C9.70313 215.643 9.48177 215.036 9.03906 214.578C8.59635 214.125 8.03646 213.898 7.35938 213.898C6.73438 213.898 6.23958 214.117 5.875 214.555C5.51563 214.992 5.33594 215.719 5.33594 216.734C5.33594 217.401 5.40365 217.945 5.53906 218.367C5.6224 218.617 5.76302 218.854 5.96094 219.078C6.16406 219.302 6.26563 219.505 6.26563 219.688C6.26563 219.906 6.1849 220.094 6.02344 220.25C5.86198 220.411 5.67188 220.492 5.45313 220.492C5.09896 220.492 4.76302 220.25 4.44531 219.766C3.97135 219.047 3.73438 217.995 3.73438 216.609C3.73438 215.365 3.99219 214.396 4.50781 213.703C5.20052 212.766 6.14844 212.297 7.35156 212.297C8.49219 212.297 9.4349 212.677 10.1797 213.438C10.9297 214.198 11.3047 215.19 11.3047 216.414C11.3047 216.857 11.263 217.268 11.1797 217.648C11.0964 218.029 10.9714 218.38 10.8047 218.703ZM7.41406 229.977C6.79948 229.977 6.20313 229.805 5.625 229.461C5.05208 229.122 4.59375 228.615 4.25 227.938C3.91146 227.266 3.74219 226.562 3.74219 225.828C3.74219 225.099 3.90885 224.401 4.24219 223.734C4.58073 223.068 5.03906 222.56 5.61719 222.211C6.19531 221.862 6.79948 221.688 7.42969 221.688C8.07031 221.688 8.69792 221.865 9.3125 222.219C9.93229 222.573 10.4193 223.081 10.7734 223.742C11.1276 224.409 11.3047 225.104 11.3047 225.828C11.3047 226.557 11.1224 227.258 10.7578 227.93C10.3984 228.607 9.91146 229.117 9.29688 229.461C8.6875 229.805 8.0599 229.977 7.41406 229.977ZM7.40625 228.375C7.92188 228.375 8.39583 228.19 8.82813 227.82C9.41146 227.315 9.70313 226.651 9.70313 225.828C9.70313 225.104 9.47135 224.5 9.00781 224.016C8.54427 223.531 8.00781 223.289 7.39844 223.289C6.89844 223.289 6.42969 223.534 5.99219 224.023C5.5599 224.513 5.34375 225.115 5.34375 225.828C5.34375 226.547 5.5599 227.151 5.99219 227.641C6.42969 228.13 6.90104 228.375 7.40625 228.375ZM11.0938 232.953H10.6406C10.8958 233.214 11.0703 233.448 11.1641 233.656C11.263 233.87 11.3125 234.115 11.3125 234.391C11.3125 234.625 11.2552 234.857 11.1406 235.086C11.026 235.315 10.8542 235.539 10.625 235.758C10.8542 236.034 11.0234 236.312 11.1328 236.594C11.2474 236.88 11.3047 237.172 11.3047 237.469C11.3047 238.062 11.1458 238.544 10.8281 238.914C10.4115 239.404 9.86458 239.648 9.1875 239.648H5.60156C5.60156 239.982 5.52604 240.229 5.375 240.391C5.22396 240.552 5.03125 240.633 4.79688 240.633C4.5625 240.633 4.36979 240.552 4.21875 240.391C4.07292 240.229 4 239.956 4 239.57V238.047H9.05469C9.29948 238.047 9.46875 238.003 9.5625 237.914C9.65625 237.826 9.70313 237.69 9.70313 237.508C9.70313 237.331 9.65625 237.167 9.5625 237.016C9.43229 236.823 9.1875 236.589 8.82813 236.312H5.60156C5.60156 236.646 5.52604 236.893 5.375 237.055C5.22396 237.216 5.03125 237.297 4.79688 237.297C4.5625 237.297 4.36979 237.216 4.21875 237.055C4.07292 236.893 4 236.62 4 236.234V234.711H9.05469C9.29427 234.711 9.46094 234.664 9.55469 234.57C9.65365 234.482 9.70313 234.346 9.70313 234.164C9.70313 233.977 9.64323 233.792 9.52344 233.609C9.40885 233.427 9.17708 233.208 8.82813 232.953H5.60156C5.60156 233.286 5.52604 233.534 5.375 233.695C5.22396 233.862 5.03125 233.945 4.79688 233.945C4.5625 233.945 4.36979 233.862 4.21875 233.695C4.07292 233.534 4 233.26 4 232.875V231.43C4 231.044 4.07292 230.771 4.21875 230.609C4.36979 230.443 4.5651 230.359 4.80469 230.359C5.03906 230.359 5.22917 230.44 5.375 230.602C5.52604 230.763 5.60156 231.013 5.60156 231.352H9.49219C9.49219 231.013 9.56771 230.763 9.71875 230.602C9.86979 230.44 10.0625 230.359 10.2969 230.359C10.5313 230.359 10.7214 230.443 10.8672 230.609C11.0182 230.771 11.0938 231.044 11.0938 231.43V232.953Z" fill="#E4C7B7"/>
</svg>
