<svg width="379" height="146" viewBox="0 0 379 146" fill="none" xmlns="http://www.w3.org/2000/svg">
<path d="M148.18 62.224C148.5 62.096 148.66 62.16 148.66 62.416C148.66 62.544 148.468 62.8 148.083 63.184C147.316 64.08 145.748 65.2 143.38 66.544C141.524 67.632 139.7 68.592 137.908 69.424C133.108 71.6 129.236 72.432 126.292 71.92C120.916 70.96 119.028 65.552 120.628 55.696C120.756 54.672 121.012 53.296 121.396 51.568C121.844 49.776 122.132 48.656 122.26 48.208C122.324 47.824 122.452 47.088 122.644 46C122.644 45.936 122.644 45.776 122.644 45.52C122.708 45.2 122.772 44.976 122.836 44.848C122.9 44.592 122.868 44.4 122.74 44.272C122.676 44.144 122.516 44.144 122.26 44.272C122.068 44.336 121.716 44.496 121.204 44.752C120.18 45.392 118.612 46.608 116.5 48.4C114.196 50.384 112.564 51.792 111.604 52.624C108.02 55.632 104.692 58.288 101.62 60.592C99.9555 61.872 98.6435 62.8 97.6835 63.376C95.4435 64.784 94.0995 64.944 93.6515 63.856C93.3955 63.216 93.3315 62.256 93.4595 60.976C93.5235 60.08 93.6835 59.056 93.9395 57.904C94.3235 56.24 94.8995 54.16 95.6675 51.664C96.4355 49.424 97.3315 46.832 98.3555 43.888C99.4435 40.88 100.5 37.936 101.524 35.056C102.548 32.112 103.444 29.488 104.212 27.184C105.108 24.432 105.652 22.416 105.844 21.136C106.036 19.728 105.876 18.928 105.364 18.736C104.532 18.416 103.54 18.448 102.388 18.832C100.98 19.344 99.3155 20.368 97.3955 21.904C96.0515 23.056 94.5475 24.464 92.8835 26.128C88.5955 30.544 83.1555 37.072 76.5635 45.712C71.2515 52.688 66.3235 59.696 61.7795 66.736C61.0755 67.888 60.3075 69.168 59.4755 70.576C62.6115 65.712 65.5235 61.392 68.2115 57.616C70.8355 53.904 74.7715 48.656 80.0195 41.872C84.6915 35.92 88.9475 30.992 92.7875 27.088C95.6035 24.336 98.0675 22.288 100.18 20.944C101.524 20.112 102.612 19.632 103.444 19.504C104.02 19.504 104.436 19.568 104.692 19.696C104.884 19.824 104.948 20.112 104.884 20.56C104.884 21.008 104.756 21.712 104.5 22.672C104.052 24.4 103.252 26.832 102.1 29.968C101.972 30.16 101.46 31.472 100.564 33.904C99.6675 36.336 98.9955 38.16 98.5475 39.376C95.2835 48.08 93.2995 54.288 92.5955 58C92.2115 59.92 92.0515 61.456 92.1155 62.608C92.2435 64.528 92.8515 65.648 93.9395 65.968C94.8995 66.224 96.3715 65.808 98.3555 64.72C99.4435 64.016 100.788 63.088 102.388 61.936C103.924 60.784 105.524 59.536 107.188 58.192C108.916 56.848 110.868 55.28 113.044 53.488C115.22 51.632 116.82 50.288 117.844 49.456C118.548 48.88 119.028 48.496 119.284 48.304C119.796 47.92 120.148 47.696 120.34 47.632C120.468 47.632 120.532 47.728 120.532 47.92C120.468 48.048 120.404 48.24 120.34 48.496C120.276 48.752 120.244 48.912 120.244 48.976C119.54 51.856 119.028 54.512 118.708 56.944C117.748 64.304 118.836 69.264 121.972 71.824C123.7 73.232 126.004 73.84 128.884 73.648C130.292 73.52 131.828 73.232 133.492 72.784C133.62 72.72 133.908 72.624 134.355 72.496C134.868 72.304 135.284 72.176 135.604 72.112C136.372 71.92 136.916 71.824 137.236 71.824C137.684 71.824 137.62 72.016 137.044 72.4C136.724 72.656 136.243 72.912 135.604 73.168C134.26 73.744 132.756 74.16 131.092 74.416C129.428 74.736 127.892 74.832 126.484 74.704C123.732 74.384 121.556 73.264 119.956 71.344C118.42 69.488 117.524 66.992 117.268 63.856C117.012 61.36 117.108 58.512 117.556 55.312C117.684 54.608 117.812 53.808 117.94 52.912C118.196 51.568 118.324 50.896 118.324 50.896C118.26 50.896 118.164 50.96 118.036 51.088C117.908 51.216 117.748 51.376 117.556 51.568C117.428 51.696 117.332 51.792 117.268 51.856C111.252 57.04 107.092 60.528 104.788 62.32C101.972 64.56 99.7635 66.096 98.1635 66.928C96.5635 67.76 95.2195 68.112 94.1315 67.984C92.7235 67.856 91.6675 67.12 90.9635 65.776C90.2595 64.56 90.0355 62.8 90.2915 60.496C90.5475 58.384 91.1875 55.6 92.2115 52.144C93.1075 49.136 95.0275 43.536 97.9715 35.344C99.3795 31.44 100.372 28.656 100.948 26.992C101.524 25.2 101.972 23.76 102.292 22.672C102.356 22.352 102.388 22.192 102.388 22.192C102.388 22.128 102.26 22.16 102.004 22.288C100.404 23.12 98.2275 24.816 95.4755 27.376C93.5555 29.232 91.5395 31.312 89.4275 33.616C85.7795 37.776 82.0995 42.352 78.3875 47.344C77.0435 49.136 75.1555 51.792 72.7235 55.312C70.2915 58.832 68.8515 60.944 68.4035 61.648C64.6915 66.896 61.4275 71.792 58.6115 76.336C57.8435 77.68 57.1395 78.864 56.4995 79.888C56.2435 80.72 56.0195 81.488 55.8275 82.192C55.0595 84.688 54.3875 86.48 53.8115 87.568C53.2355 88.72 52.5315 89.488 51.6995 89.872C50.9955 90.256 50.2595 90.32 49.4915 90.064C48.7235 89.872 48.1475 89.424 47.7635 88.72C47.1875 87.76 47.1875 86.512 47.7635 84.976C48.2115 83.696 49.0435 81.968 50.2595 79.792C50.7075 78.96 51.2515 78.032 51.8915 77.008C52.7875 73.936 53.4915 71.376 54.0035 69.328C55.1555 64.848 56.1795 59.696 57.0755 53.872C58.0355 47.984 58.5795 42.608 58.7075 37.744C58.8995 31.152 58.2595 26.128 56.7875 22.672C55.7635 20.304 54.4195 18.768 52.7555 18.064C50.6435 17.168 48.3715 17.552 45.9395 19.216C45.5555 19.408 45.1715 19.664 44.7875 19.984C44.1475 20.624 43.2515 21.648 42.0995 23.056C40.9475 24.4 40.2755 25.168 40.0835 25.36C38.7395 26.896 37.9715 27.312 37.7795 26.608C37.7155 26.48 37.7155 26.32 37.7795 26.128C37.9075 24.976 38.5155 23.472 39.6035 21.616C41.8435 17.776 44.6915 15.376 48.1475 14.416C51.6675 13.392 54.7395 14.064 57.3635 16.432C58.8995 17.904 60.1475 19.92 61.1075 22.48C62.2595 25.552 62.9635 29.072 63.2195 33.04C63.3475 36.432 63.2195 40.56 62.8355 45.424C62.4515 49.456 61.9395 53.552 61.2995 57.712C60.9795 59.824 60.6275 61.84 60.2435 63.76C65.2355 56.272 69.9395 49.648 74.3555 43.888C80.8195 35.568 86.0675 29.328 90.0995 25.168C93.6835 21.584 96.7555 19.056 99.3155 17.584C100.788 16.752 102.164 16.272 103.444 16.144C105.748 15.888 107.252 16.528 107.956 18.064C108.404 19.216 108.308 21.04 107.668 23.536C107.54 23.984 107.348 24.624 107.092 25.456C106.26 28.272 105.012 31.888 103.348 36.304C103.156 36.816 102.452 38.64 101.236 41.776C100.02 44.848 99.1875 46.992 98.7395 48.208C98.3555 49.36 97.8115 51.12 97.1075 53.488C96.4675 55.792 96.0195 57.904 95.7635 59.824C95.6355 60.592 95.5715 61.104 95.5715 61.36C95.5075 61.808 95.6035 62.064 95.8595 62.128C95.9875 62.128 96.1795 62.064 96.4355 61.936C97.3315 61.424 98.8355 60.4 100.948 58.864C102.356 57.776 105.588 55.152 110.644 50.992C111.092 50.672 111.572 50.288 112.084 49.84C112.66 49.392 113.172 49.008 113.62 48.688C114.068 48.304 114.548 47.888 115.06 47.44C115.572 46.992 116.052 46.608 116.5 46.288C118.292 44.816 119.604 43.888 120.436 43.504C121.204 43.056 122.004 42.832 122.836 42.832C123.348 42.832 123.668 42.96 123.796 43.216C123.796 43.28 123.828 43.504 123.892 43.888C124.02 44.528 124.084 44.976 124.084 45.232C124.02 45.296 123.988 45.392 123.988 45.52C123.988 45.648 123.988 45.776 123.988 45.904C123.988 46.032 123.988 46.128 123.988 46.192C123.924 46.512 123.54 48.048 122.836 50.8C122.26 52.976 121.876 54.96 121.684 56.752C121.428 58.736 121.364 60.528 121.492 62.128C121.684 66.416 122.9 69.072 125.14 70.096C126.356 70.672 127.924 70.832 129.844 70.576C131.572 70.448 133.524 69.936 135.7 69.04C139.092 67.76 142.676 65.84 146.452 63.28C147.412 62.64 147.988 62.288 148.18 62.224ZM177.399 72.208C177.527 71.952 177.719 71.824 177.975 71.824C178.231 71.824 178.359 72.016 178.359 72.4C178.359 72.528 178.199 72.944 177.879 73.648C177.687 74.032 177.495 74.416 177.303 74.8C176.855 75.632 176.407 76.4 175.959 77.104C174.871 78.768 173.751 79.984 172.599 80.752C169.975 82.48 167.415 82.512 164.919 80.848C162.231 79.056 160.663 76.08 160.215 71.92C160.151 71.792 160.119 71.664 160.119 71.536C160.119 71.408 160.119 71.28 160.119 71.152C160.119 70.96 160.119 70.8 160.119 70.672C160.119 70.544 160.119 70.416 160.119 70.288C160.119 70.096 160.087 69.968 160.023 69.904C160.023 69.776 159.991 69.712 159.927 69.712C159.927 69.712 159.863 69.776 159.735 69.904C159.415 70.224 159.223 70.448 159.159 70.576C157.815 71.856 156.823 72.848 156.183 73.552C155.031 74.832 154.007 75.792 153.111 76.432C151.959 77.264 150.807 77.712 149.655 77.776C147.863 77.84 146.455 77.104 145.431 75.568C144.087 73.584 143.927 70.928 144.951 67.6C145.399 66.192 146.071 64.816 146.967 63.472C147.799 62.256 149.015 61.104 150.615 60.016C154.007 57.776 157.239 57.04 160.311 57.808C161.847 58.256 163.287 59.024 164.631 60.112C165.975 61.2 166.999 62.48 167.703 63.952C167.767 64.144 167.831 64.304 167.895 64.432C167.959 64.688 168.023 64.944 168.087 65.2C168.279 65.968 168.183 66.608 167.799 67.12C167.607 67.44 167.319 67.632 166.935 67.696C166.551 67.696 166.231 67.568 165.975 67.312C165.783 67.12 165.591 66.896 165.399 66.64C165.399 66.768 165.367 66.96 165.303 67.216C165.303 67.472 165.303 67.696 165.303 67.888C165.303 68.08 165.271 68.304 165.207 68.56C165.207 68.816 165.207 69.04 165.207 69.232C165.207 69.872 165.367 70.992 165.687 72.592C166.007 74.448 166.615 75.824 167.511 76.72C168.151 77.232 168.823 77.424 169.527 77.296C170.231 77.168 170.839 76.784 171.351 76.144C171.543 75.888 171.767 75.536 172.023 75.088C172.343 74.64 172.535 74.352 172.599 74.224C172.727 74.032 172.887 73.84 173.079 73.648C173.271 73.392 173.431 73.136 173.559 72.88C173.751 72.624 173.911 72.432 174.039 72.304C174.295 71.984 175.095 70.448 176.439 67.696C176.567 67.44 176.727 67.312 176.919 67.312C177.111 67.248 177.271 67.344 177.399 67.6C177.463 67.92 177.271 68.592 176.823 69.616C175.927 71.536 175.127 73.104 174.423 74.32C173.335 75.984 172.279 77.2 171.255 77.968C169.719 79.056 168.279 79.216 166.935 78.448C165.911 77.808 164.983 76.528 164.151 74.608C163.511 73.008 163.223 71.376 163.287 69.712C163.351 69.456 163.415 68.944 163.479 68.176C163.543 67.408 163.575 66.8 163.575 66.352C163.575 65.712 163.319 65.168 162.807 64.72C162.359 64.272 161.815 64.144 161.175 64.336C160.791 64.4 160.151 64.944 159.255 65.968C158.359 67.056 157.847 67.664 157.719 67.792C156.503 69.328 155.799 70.192 155.607 70.384C155.479 70.576 155.223 70.896 154.839 71.344C154.519 71.792 154.231 72.144 153.975 72.4C153.783 72.656 153.495 72.944 153.111 73.264C152.791 73.584 152.471 73.872 152.151 74.128C150.423 75.344 149.015 75.44 147.927 74.416C147.223 73.712 146.807 72.624 146.679 71.152C146.679 71.536 146.711 71.92 146.775 72.304C146.967 73.904 147.735 74.896 149.079 75.28C149.527 75.28 149.879 75.312 150.135 75.376C150.455 75.44 150.807 75.376 151.191 75.184C151.639 74.928 151.991 74.736 152.247 74.608C152.503 74.416 152.791 74.16 153.111 73.84C153.495 73.52 153.783 73.264 153.975 73.072C154.167 72.816 154.423 72.528 154.743 72.208C155.063 71.824 155.319 71.536 155.511 71.344C157.367 69.424 158.391 68.336 158.583 68.08C158.647 68.016 158.871 67.76 159.255 67.312C159.895 66.544 160.343 66.128 160.599 66.064C160.919 65.936 161.239 65.968 161.559 66.16C161.879 66.352 162.071 66.64 162.135 67.024C162.199 67.152 162.167 67.6 162.039 68.368C161.975 68.816 161.943 69.2 161.943 69.52C161.879 70.544 162.103 72.112 162.615 74.224C163.063 76.144 163.863 77.68 165.015 78.832C165.527 79.344 166.071 79.76 166.647 80.08C167.223 80.4 167.863 80.592 168.567 80.656C170.039 80.72 171.543 80.048 173.079 78.64C174.231 77.616 175.287 76.24 176.247 74.512C176.311 74.384 176.471 74.032 176.727 73.456C176.983 72.88 177.207 72.464 177.399 72.208ZM156.855 65.008C158.135 63.6 159.031 62.768 159.543 62.512C159.671 62.448 159.799 62.416 159.927 62.416C159.415 62.224 158.903 62.128 158.391 62.128C156.215 62 154.167 63.024 152.247 65.2C151.415 66.224 150.743 67.504 150.231 69.04C149.911 70.064 149.751 70.8 149.751 71.248C149.687 71.76 149.751 72.048 149.943 72.112C150.071 72.112 150.295 71.984 150.615 71.728C150.871 71.536 151.159 71.28 151.479 70.96C151.863 70.576 152.375 70 153.015 69.232C153.719 68.464 154.135 68.048 154.263 67.984C155.095 67.024 155.959 66.032 156.855 65.008ZM203.63 70.384C203.822 70.576 203.758 70.992 203.438 71.632C203.246 72.144 202.99 72.72 202.67 73.36C201.262 76.304 199.95 78.8 198.734 80.848C197.006 83.664 195.342 85.776 193.742 87.184C191.63 88.976 189.582 89.616 187.598 89.104C184.206 88.336 182.67 84.944 182.99 78.928C183.118 76.368 183.598 73.648 184.43 70.768C184.878 69.296 185.326 68.048 185.774 67.024C185.774 66.96 185.838 66.832 185.966 66.64C186.094 66.384 186.19 66.16 186.254 65.968C186.382 65.776 186.446 65.648 186.446 65.584C186.446 65.584 186.35 65.68 186.158 65.872C186.158 65.808 186.158 65.712 186.158 65.584C186.222 65.456 186.254 65.392 186.254 65.392C186.254 65.392 186.094 65.52 185.774 65.776L185.294 66.16C184.782 66.544 184.494 66.768 184.43 66.832C183.726 67.344 182.638 68.016 181.166 68.848C177.774 70.768 175.438 70.736 174.158 68.752C173.454 67.536 173.166 66.256 173.294 64.912C173.358 63.568 173.742 62.288 174.446 61.072C175.022 59.92 175.822 59.024 176.846 58.384C177.87 57.744 178.894 57.744 179.918 58.384C181.39 59.28 181.614 60.848 180.59 63.088C180.718 63.024 180.878 62.896 181.07 62.704C181.902 62 183.054 60.944 184.526 59.536C186.062 58.064 187.086 57.104 187.598 56.656C189.39 55.056 190.766 54.16 191.726 53.968C193.39 53.648 194.542 54.064 195.182 55.216C195.63 56.112 195.47 57.616 194.702 59.728C194.51 60.368 194.126 61.264 193.55 62.416C192.974 63.568 192.622 64.272 192.494 64.528C191.854 66.064 191.31 67.408 190.862 68.56C189.838 71.312 189.006 74.544 188.366 78.256C187.982 80.624 188.046 82.352 188.558 83.44C188.878 84.144 189.582 84.048 190.67 83.152C191.822 82.192 193.006 80.976 194.222 79.504C195.438 77.968 196.334 76.496 196.91 75.088C197.294 74.256 198.19 72.72 199.598 70.48C199.918 70.032 200.206 69.552 200.462 69.04C200.782 68.528 201.07 67.952 201.326 67.312C201.646 66.672 201.934 66.16 202.19 65.776C202.446 65.328 202.702 65.136 202.958 65.2C203.15 65.328 203.214 65.584 203.15 65.968C203.15 66.224 202.958 66.704 202.574 67.408C202.51 67.6 202.286 68.048 201.902 68.752C201.326 69.904 200.846 70.896 200.462 71.728C199.182 74.096 198.094 75.984 197.198 77.392C197.07 77.648 196.686 78.288 196.046 79.312C195.406 80.272 194.958 80.944 194.702 81.328C194.446 81.712 194.03 82.256 193.454 82.96C192.878 83.728 192.302 84.304 191.726 84.688C191.15 85.136 190.51 85.488 189.806 85.744C188.782 86.192 187.95 86.096 187.31 85.456C186.734 84.88 186.382 83.92 186.254 82.576C186.19 81.296 186.158 80.208 186.158 79.312C186.222 78.416 186.318 77.52 186.446 76.624C186.894 72.784 187.694 69.296 188.846 66.16C189.486 64.432 190.382 62.48 191.534 60.304C192.238 58.96 192.622 58 192.686 57.424C192.75 56.656 192.142 56.816 190.862 57.904C190.35 58.288 189.774 58.8 189.134 59.44C189.198 59.376 189.294 59.312 189.422 59.248C189.55 59.12 189.678 59.024 189.806 58.96C190.638 58.256 191.214 57.84 191.534 57.712C191.854 57.52 192.046 57.552 192.11 57.808C192.174 58 192.142 58.224 192.014 58.48C191.822 59.056 191.246 60.208 190.286 61.936C189.39 63.6 188.462 65.68 187.502 68.176C187.118 69.136 186.51 71.28 185.678 74.608C184.782 77.872 184.526 80.592 184.91 82.768C185.294 85.456 186.414 86.992 188.27 87.376C189.934 87.76 191.95 86.736 194.318 84.304C195.406 83.28 196.558 81.712 197.774 79.6C198.03 79.28 198.382 78.736 198.83 77.968C199.342 77.136 199.726 76.528 199.982 76.144C200.494 75.184 201.134 73.936 201.902 72.4C201.902 72.4 201.934 72.336 201.998 72.208C202.062 72.016 202.126 71.856 202.19 71.728C202.254 71.6 202.318 71.44 202.382 71.248C202.51 71.056 202.606 70.928 202.67 70.864C202.798 70.736 202.894 70.608 202.958 70.48C203.086 70.352 203.182 70.288 203.246 70.288C203.374 70.288 203.502 70.32 203.63 70.384ZM223.759 58.672C223.823 59.056 223.791 59.728 223.663 60.688C222.895 64.976 222.287 68.144 221.839 70.192C221.647 71.216 221.423 72.336 221.167 73.552C220.911 74.704 220.655 75.856 220.399 77.008C220.207 78.16 220.015 79.28 219.823 80.368C219.631 81.392 219.407 82.512 219.151 83.728C218.959 85.008 218.767 86.16 218.575 87.184C218.447 87.632 218.255 88.4 217.999 89.488C217.807 90.576 217.679 91.376 217.615 91.888C217.423 92.656 217.103 93.84 216.655 95.44C216.271 97.104 216.015 98.352 215.887 99.184C215.759 99.824 215.599 100.72 215.407 101.872C215.279 103.024 215.183 103.824 215.119 104.272C215.055 104.656 214.703 106.416 214.062 109.552C213.551 111.856 212.783 115.216 211.759 119.632C211.183 122 210.831 123.696 210.703 124.72C210.447 127.216 210.191 128.912 209.935 129.808C209.871 130.128 209.679 130.864 209.359 132.016C209.039 133.232 208.815 134.192 208.687 134.896C208.623 135.024 208.463 135.728 208.207 137.008C207.951 138.288 207.727 139.28 207.535 139.984C207.407 140.752 207.183 141.04 206.863 140.848C206.543 140.72 206.447 140.24 206.575 139.408C206.575 139.152 206.607 138.864 206.671 138.544C206.735 138.224 206.799 137.872 206.863 137.488C206.991 137.168 207.055 136.912 207.055 136.72C207.183 136.144 207.375 135.248 207.631 134.032C208.655 128.848 209.359 125.264 209.743 123.28C209.935 122.256 210.191 120.656 210.511 118.48C210.831 116.368 211.087 114.768 211.279 113.68C211.343 113.296 211.503 112.56 211.759 111.472C212.015 110.384 212.175 109.552 212.239 108.976C212.303 108.784 212.559 107.216 213.007 104.272C213.135 103.376 213.391 102.032 213.775 100.24C214.159 98.512 214.415 97.296 214.543 96.592C214.607 96.08 214.735 95.312 214.927 94.288C215.119 93.328 215.215 92.72 215.215 92.464C215.535 90.864 215.919 88.432 216.367 85.168C216.879 81.968 217.263 79.536 217.519 77.872C218.159 74.288 218.767 71.12 219.343 68.368C219.471 67.728 219.599 66.928 219.727 65.968C219.471 66.416 219.343 66.672 219.343 66.736C218.511 70.64 217.935 73.36 217.615 74.896C217.423 75.856 217.135 77.296 216.751 79.216C216.367 81.072 216.079 82.48 215.887 83.44C215.311 86.64 214.735 89.392 214.159 91.696C213.327 95.152 212.719 97.968 212.335 100.144C212.271 100.528 212.207 100.976 212.143 101.488C212.079 102 211.983 102.512 211.855 103.024C211.791 103.536 211.727 103.984 211.663 104.368C211.599 104.688 211.311 106.128 210.799 108.688C209.583 114.128 208.975 116.912 208.975 117.04C208.911 117.36 208.847 117.712 208.783 118.096C208.719 118.48 208.655 118.832 208.591 119.152C208.591 119.472 208.559 119.824 208.495 120.208C208.431 120.592 208.367 120.944 208.303 121.264C208.239 121.904 207.983 123.28 207.535 125.392C207.279 126.672 207.023 128.048 206.767 129.52C206.319 132.336 206.063 133.776 205.999 133.84C205.871 134.416 205.679 134.736 205.423 134.8C205.167 134.8 205.007 134.64 204.943 134.32C204.943 134.128 205.039 133.456 205.23 132.304C205.295 131.856 205.391 131.184 205.519 130.288C205.647 129.456 205.775 128.528 205.903 127.504C206.095 126.544 206.255 125.52 206.383 124.432C206.575 123.344 206.735 122.416 206.863 121.648C206.991 120.944 207.119 120.048 207.247 118.96C207.439 117.872 207.599 116.816 207.727 115.792C207.919 114.832 208.079 113.936 208.207 113.104C211.023 97.168 213.199 85.84 214.734 79.12C215.055 77.584 215.567 74.896 216.271 71.056C216.271 71.056 216.239 71.088 216.174 71.152C215.343 72.24 214.159 73.52 212.623 74.992C209.807 77.808 207.247 78.928 204.943 78.352C203.343 77.968 202.223 77.04 201.582 75.568C200.942 74.032 200.686 72.368 200.814 70.576C201.006 67.248 201.742 63.792 203.023 60.208C203.151 60.016 203.247 59.792 203.311 59.536C203.503 59.024 203.727 58.576 203.983 58.192C204.175 57.872 204.431 57.552 204.751 57.232C205.071 56.912 205.423 56.656 205.807 56.464C206.255 56.272 206.607 56.368 206.863 56.752C207.055 57.072 207.087 57.584 206.959 58.288C206.895 58.544 206.831 58.8 206.767 59.056C206.703 59.248 206.607 59.504 206.479 59.824C206.415 60.08 206.383 60.304 206.383 60.496C206.191 61.2 205.903 62.864 205.519 65.488C205.263 67.728 205.135 69.456 205.135 70.672C205.199 71.696 205.327 72.528 205.519 73.168C205.711 73.808 206.063 74.032 206.575 73.84C207.151 73.52 207.887 72.912 208.783 72.016C209.743 71.056 210.799 69.744 211.951 68.08C212.719 66.992 213.743 65.36 215.023 63.184C216.367 61.008 217.199 59.728 217.519 59.344C217.583 59.216 217.679 59.056 217.807 58.864C217.935 58.608 218.031 58.448 218.095 58.384C218.159 58.256 218.255 58.096 218.383 57.904C218.575 57.648 218.703 57.488 218.767 57.424C218.831 57.36 218.959 57.232 219.151 57.04C219.343 56.848 219.471 56.752 219.535 56.752C219.663 56.688 219.823 56.592 220.015 56.464C220.271 56.336 220.463 56.304 220.591 56.368C220.783 56.368 221.007 56.368 221.263 56.368C221.903 56.432 222.447 56.688 222.895 57.136C223.343 57.52 223.631 58.032 223.759 58.672ZM261.031 70.384C261.287 70.192 261.543 70.064 261.799 70C262.055 69.872 262.215 69.936 262.279 70.192C262.215 70.704 261.639 71.344 260.551 72.112C258.119 73.84 256.135 74.8 254.599 74.992C253.511 75.056 252.615 74.832 251.911 74.32C251.207 73.744 250.695 72.912 250.375 71.824C250.055 70.672 249.831 69.712 249.703 68.944C249.639 68.112 249.575 67.152 249.511 66.064C249.383 63.76 249.191 62.352 248.935 61.84C248.167 60.304 246.631 60.496 244.327 62.416C243.687 62.992 242.727 63.92 241.447 65.2C239.783 66.928 238.439 68.496 237.415 69.904C236.903 70.544 236.263 71.44 235.495 72.592C234.727 73.68 234.183 74.416 233.863 74.8C233.735 75.504 233.607 76.08 233.479 76.528C233.287 77.232 233.127 77.808 232.999 78.256C233.383 77.808 233.895 77.104 234.535 76.144C235.239 75.12 235.783 74.352 236.167 73.84C238.151 71.216 240.071 68.912 241.927 66.928C242.951 65.84 243.911 64.912 244.807 64.144C246.215 63.056 247.111 62.832 247.495 63.472C247.623 63.728 247.719 64.592 247.783 66.064C247.847 67.024 247.911 67.856 247.975 68.56C248.359 72.144 249.415 74.544 251.143 75.76C252.231 76.464 253.511 76.72 254.983 76.528C255.047 76.528 255.175 76.496 255.367 76.432C255.623 76.368 255.879 76.304 256.135 76.24C256.391 76.176 256.647 76.144 256.903 76.144C257.159 76.08 257.383 76.08 257.575 76.144C257.767 76.144 257.863 76.208 257.863 76.336C257.927 76.656 257.479 76.976 256.519 77.296C256.327 77.36 256.071 77.424 255.751 77.488C254.407 77.808 253.127 77.776 251.911 77.392C249.671 76.56 248.103 74.48 247.207 71.152C246.887 70 246.663 68.624 246.535 67.024C246.535 66.896 246.503 66.768 246.439 66.64C246.439 66.448 246.439 66.256 246.439 66.064C246.439 65.872 246.407 65.712 246.343 65.584C246.343 65.328 246.343 65.168 246.343 65.104C246.215 64.976 246.023 65.072 245.767 65.392C245.639 65.456 245.447 65.616 245.191 65.872C244.999 66.064 244.871 66.192 244.807 66.256C243.975 67.152 243.015 68.272 241.927 69.616C240.775 70.896 238.983 73.232 236.551 76.624C235.527 78.032 234.663 79.152 233.959 79.984C233.255 80.944 232.743 81.552 232.423 81.808C231.719 82.32 230.919 82.48 230.023 82.288C229.127 82.16 228.454 81.712 228.006 80.944C227.878 80.688 227.782 80.4 227.718 80.08C227.654 79.76 227.654 79.44 227.718 79.12C227.718 78.8 227.75 78.512 227.814 78.256C227.814 78 227.878 77.68 228.006 77.296C228.07 76.912 228.134 76.624 228.198 76.432C228.39 75.408 228.678 73.904 229.062 71.92C229.447 69.936 229.735 68.496 229.927 67.6C230.247 65.872 230.599 64.048 230.983 62.128C231.431 60.144 231.911 57.968 232.423 55.6C232.935 53.232 233.351 51.376 233.671 50.032C234.503 46.064 235.111 43.152 235.495 41.296C235.815 39.504 236.583 36.656 237.799 32.752C238.951 28.912 239.911 26.096 240.679 24.304C241.767 21.68 242.823 19.696 243.847 18.352C245.447 16.24 247.079 15.216 248.743 15.28C249.575 15.28 250.311 15.6 250.951 16.24C251.591 16.816 252.039 17.456 252.295 18.16C252.615 18.864 252.871 19.664 253.062 20.56C253.255 22.096 253.255 23.856 253.062 25.84C252.743 28.592 252.103 31.408 251.143 34.288C250.311 36.528 249.031 38.992 247.303 41.68C245.703 44.24 244.007 46.48 242.215 48.4C242.023 48.592 241.831 48.784 241.639 48.976C241.063 49.616 240.487 50.128 239.911 50.512C239.655 50.704 239.303 50.896 238.855 51.088C238.343 53.392 237.831 55.696 237.319 58C237.191 58.768 236.423 62.768 235.015 70C237.767 66.48 240.167 63.824 242.215 62.032C243.559 60.88 244.679 60.112 245.575 59.728C246.471 59.344 247.335 59.312 248.167 59.632C249.063 59.888 249.703 60.464 250.087 61.36C250.407 62 250.599 63.344 250.663 65.392C250.727 67.376 251.111 69.264 251.815 71.056C252.263 72.336 252.743 73.136 253.255 73.456C253.831 73.84 254.631 73.872 255.655 73.552C256.935 73.168 258.727 72.112 261.031 70.384ZM246.631 24.208C245.095 27.664 243.815 31.28 242.791 35.056C241.831 38.384 240.903 41.968 240.007 45.808C240.583 44.976 241.447 43.6 242.599 41.68C243.687 39.888 244.583 38.224 245.287 36.688C247.079 32.784 248.103 29.104 248.359 25.648C248.423 24.688 248.423 23.76 248.359 22.864C248.359 21.968 248.295 21.52 248.167 21.52C248.103 21.52 247.943 21.712 247.687 22.096C247.367 22.672 247.015 23.376 246.631 24.208ZM231.655 79.984C231.719 79.92 231.815 79.824 231.943 79.696C231.431 79.568 231.079 79.504 230.887 79.504C231.015 79.12 231.111 78.736 231.175 78.352C230.919 78.736 230.663 78.992 230.407 79.12C230.279 78.928 230.023 78.672 229.639 78.352V78.448L229.543 78.64C229.415 79.344 229.415 79.824 229.543 80.08C229.863 80.464 230.215 80.624 230.599 80.56C230.983 80.496 231.335 80.304 231.655 79.984ZM231.943 73.936C232.199 72.592 232.775 69.232 233.671 63.856C234.567 58.48 235.303 54.32 235.879 51.376C236.455 48.496 237.351 44.624 238.567 39.76C238.695 39.056 239.175 37.168 240.007 34.096C240.199 33.52 240.423 32.688 240.679 31.6C240.167 33.072 239.527 35.216 238.759 38.032C237.415 42.96 236.647 45.904 236.455 46.864C234.919 53.392 233.671 59.216 232.711 64.336C232.519 65.488 232.167 67.12 231.655 69.232C231.207 71.28 230.919 72.592 230.791 73.168C230.535 74.192 230.279 75.376 230.023 76.72C230.023 76.72 230.663 75.792 231.943 73.936ZM230.503 79.504C230.567 79.44 230.695 79.44 230.887 79.504C230.887 79.504 230.823 79.504 230.695 79.504C230.631 79.504 230.567 79.504 230.503 79.504ZM230.503 79.408C230.503 79.408 230.471 79.344 230.407 79.216V79.12C230.471 79.248 230.503 79.344 230.503 79.408ZM271.406 51.856C271.726 53.136 271.182 54 269.774 54.448C268.43 54.832 267.374 54.512 266.606 53.488C265.902 52.592 265.806 51.568 266.318 50.416C266.83 49.2 267.662 48.592 268.814 48.592C269.198 48.592 269.646 48.752 270.158 49.072C270.67 49.328 271.022 49.616 271.214 49.936C271.534 50.448 271.598 50.928 271.406 51.376C271.342 51.568 271.182 51.536 270.926 51.28C270.926 50.896 270.798 50.544 270.542 50.224C270.35 49.84 270.03 49.648 269.582 49.648C269.07 49.52 268.59 49.584 268.142 49.84C267.694 50.096 267.406 50.608 267.278 51.376C267.15 52.144 267.406 52.624 268.046 52.816C267.534 52.24 267.438 51.632 267.758 50.992C268.142 50.352 268.686 50.192 269.39 50.512C270.158 50.832 270.286 51.024 269.774 51.088C269.262 51.152 269.006 51.184 269.006 51.184C268.558 51.44 268.526 51.696 268.91 51.952C268.974 52.016 269.23 51.984 269.678 51.856C270.126 51.664 270.478 51.536 270.734 51.472C271.054 51.408 271.278 51.536 271.406 51.856ZM282.35 69.232C282.414 69.36 282.286 69.68 281.966 70.192C281.902 70.256 281.806 70.352 281.678 70.48C281.614 70.608 281.518 70.736 281.39 70.864C281.326 70.992 281.262 71.12 281.198 71.248C279.342 73.872 278.286 75.344 278.03 75.664C276.43 77.456 275.214 78.64 274.382 79.216C271.566 81.328 268.846 82.256 266.222 82C264.878 81.808 263.758 81.456 262.862 80.944C262.158 80.56 261.454 79.92 260.75 79.024C260.366 78.576 260.046 78.16 259.79 77.776C259.534 77.136 259.374 76.24 259.31 75.088C259.246 73.04 259.438 71.248 259.886 69.712C259.95 69.52 260.046 69.328 260.174 69.136C260.238 68.88 260.334 68.688 260.462 68.56C260.526 68.368 260.622 68.176 260.75 67.984C260.814 67.728 260.878 67.504 260.942 67.312C261.006 67.12 261.134 66.736 261.326 66.16C261.582 65.52 261.742 65.04 261.806 64.72C261.998 64.08 262.382 63.312 262.958 62.416C263.086 62.096 263.278 61.68 263.534 61.168C263.854 60.592 264.046 60.24 264.11 60.112C264.11 60.048 264.142 59.984 264.206 59.92C264.27 59.792 264.302 59.696 264.302 59.632C264.622 59.184 265.102 59.024 265.742 59.152C266.446 59.216 266.894 59.504 267.086 60.016C267.214 60.208 267.246 60.56 267.182 61.072C267.182 61.2 267.15 61.424 267.086 61.744C267.086 62 267.086 62.128 267.086 62.128C267.086 62.64 266.926 63.376 266.606 64.336C266.222 65.808 265.838 67.312 265.454 68.848C265.198 70.064 265.038 70.864 264.974 71.248C264.974 71.504 264.942 71.888 264.878 72.4C264.878 72.912 264.846 73.296 264.782 73.552C264.718 74.192 264.782 74.864 264.974 75.568C265.166 76.08 265.39 76.368 265.646 76.432C266.414 76.752 267.438 76.688 268.718 76.24C268.846 76.24 269.038 76.208 269.294 76.144C269.614 76.016 269.838 75.952 269.966 75.952C270.478 75.76 270.99 75.376 271.502 74.8C271.758 74.544 272.878 73.584 274.862 71.92C275.374 71.472 275.918 70.992 276.494 70.48C276.686 70.288 276.878 70 277.07 69.616C277.326 69.168 277.486 68.912 277.55 68.848C277.678 68.592 277.934 68.304 278.318 67.984C278.766 67.664 279.022 67.504 279.086 67.504C279.278 67.312 279.502 67.024 279.758 66.64C280.078 66.256 280.302 66 280.43 65.872C280.622 65.68 280.814 65.648 281.006 65.776C281.198 65.904 281.326 66.064 281.39 66.256C281.39 66.384 281.262 66.608 281.006 66.928C280.878 67.056 280.654 67.344 280.334 67.792C280.142 68.048 279.854 68.4 279.47 68.848C279.15 69.232 278.926 69.52 278.798 69.712C278.606 69.904 278.35 70.192 278.03 70.576C277.71 70.896 277.454 71.152 277.262 71.344C277.134 71.536 276.942 71.856 276.686 72.304C276.43 72.688 276.206 72.976 276.014 73.168C275.886 73.36 275.63 73.616 275.246 73.936C274.862 74.256 274.574 74.512 274.382 74.704C274.254 74.832 274.062 75.088 273.806 75.472C273.55 75.792 273.326 76.016 273.134 76.144C273.006 76.272 272.878 76.4 272.75 76.528C272.622 76.592 272.494 76.656 272.366 76.72C272.238 76.784 272.078 76.88 271.886 77.008C271.694 77.136 271.566 77.232 271.502 77.296C270.606 77.872 269.998 78.224 269.678 78.352C267.758 79.12 266.286 79.408 265.262 79.216C264.046 79.024 263.15 78.384 262.574 77.296C262.254 76.656 262.03 75.952 261.902 75.184C261.902 74.992 261.838 74.704 261.71 74.32C261.646 75.6 261.87 76.72 262.382 77.68C262.894 78.704 263.886 79.408 265.358 79.792C266.126 79.92 267.566 79.824 269.678 79.504C270.51 79.312 271.374 78.992 272.27 78.544C272.782 78.224 273.39 77.712 274.094 77.008C274.414 76.688 275.022 76.176 275.918 75.472C276.878 74.704 277.55 74.064 277.934 73.552C278.83 72.336 279.342 71.664 279.47 71.536C279.918 71.024 280.462 70.32 281.102 69.424C281.358 69.04 281.582 68.848 281.774 68.848C282.094 68.848 282.286 68.976 282.35 69.232ZM321.999 64.72C322.511 64.272 322.863 64.144 323.055 64.336C323.247 64.528 323.183 64.848 322.863 65.296C322.735 65.488 322.223 66 321.327 66.832C321.263 66.96 321.167 67.088 321.039 67.216C320.975 67.28 320.879 67.376 320.751 67.504C320.687 67.568 320.591 67.632 320.463 67.696C320.399 67.76 320.303 67.856 320.175 67.984C320.047 68.112 319.951 68.208 319.887 68.272C318.671 69.424 317.583 70.384 316.623 71.152C315.471 72.176 314.479 73.008 313.647 73.648C312.751 74.352 311.983 74.832 311.343 75.088C310.639 75.344 310.127 75.248 309.807 74.8C309.615 74.544 309.487 74 309.423 73.168C309.359 72.656 309.327 71.952 309.327 71.056C309.391 70.416 309.455 69.424 309.519 68.08C309.647 66.736 309.711 65.712 309.711 65.008C309.711 64.24 309.679 63.6 309.615 63.088C309.487 62.256 309.295 61.744 309.039 61.552C308.463 61.04 307.439 61.456 305.967 62.8C305.583 63.12 304.719 63.984 303.375 65.392C302.543 66.16 301.743 66.992 300.975 67.888C299.695 69.424 298.767 70.384 298.191 70.768C297.423 71.344 296.975 71.312 296.847 70.672C296.783 70.288 296.847 69.616 297.039 68.656C297.103 68.144 297.423 66.768 297.999 64.528C298.575 62.352 298.895 60.976 298.959 60.4C299.023 58.608 298.575 57.424 297.615 56.848C296.719 56.336 295.599 56.592 294.255 57.616C293.423 58.192 292.527 59.152 291.567 60.496C290.799 61.584 290.127 62.736 289.551 63.952C289.295 64.4 289.071 64.912 288.879 65.488C289.199 64.784 289.551 64.144 289.935 63.568C291.343 61.008 292.751 59.184 294.159 58.096C295.375 57.2 296.399 56.912 297.231 57.232C298.063 57.552 298.479 58.48 298.479 60.016C298.415 60.848 298.031 62.288 297.327 64.336C296.367 67.216 295.887 69.552 295.887 71.344C295.887 72.176 296.079 72.656 296.463 72.784C296.719 72.912 297.167 72.784 297.807 72.4C298.639 71.952 299.535 71.312 300.495 70.48C301.327 69.712 302.639 68.304 304.431 66.256C304.559 66.128 304.719 65.968 304.911 65.776C305.103 65.52 305.263 65.296 305.391 65.104C305.583 64.912 305.743 64.72 305.871 64.528C306.063 64.336 306.255 64.176 306.447 64.048C306.639 63.856 306.831 63.728 307.023 63.664C307.343 63.536 307.567 63.504 307.695 63.568C307.887 63.632 308.015 63.792 308.079 64.048C308.143 64.24 308.175 64.464 308.175 64.72C308.175 64.976 308.175 65.232 308.175 65.488C308.175 65.616 308.175 65.68 308.175 65.68C308.175 66.192 308.111 66.896 307.983 67.792C307.727 70.096 307.599 71.504 307.599 72.016C307.535 74.832 308.111 76.496 309.327 77.008C310.479 77.392 312.143 76.848 314.319 75.376C315.407 74.608 316.751 73.456 318.351 71.92C318.479 71.792 318.703 71.568 319.023 71.248C319.343 70.928 319.599 70.704 319.791 70.576C320.239 70.128 320.591 69.936 320.847 70C321.103 70.256 321.135 70.512 320.943 70.768C320.815 71.024 320.559 71.312 320.175 71.632C318.319 73.488 316.655 74.992 315.183 76.144C312.623 78.128 310.511 78.832 308.847 78.256C307.183 77.616 306.287 75.856 306.159 72.976C306.159 72.016 306.191 70.8 306.255 69.328C306.319 69.136 306.351 68.688 306.351 67.984C306.351 67.216 306.351 66.832 306.351 66.832C306.351 66.832 306.287 66.896 306.159 67.024C306.095 67.152 306.063 67.216 306.063 67.216C305.743 67.536 304.879 68.464 303.471 70C302.575 71.024 301.903 71.76 301.455 72.208C299.983 73.744 298.735 74.64 297.711 74.896C296.111 75.216 294.927 74.736 294.159 73.456C293.583 72.432 293.487 70.96 293.871 69.04C294.127 67.696 294.607 66 295.311 63.952C295.951 62.16 296.303 61.136 296.367 60.88C296.431 60.752 296.463 60.432 296.463 59.92C296.463 59.408 296.303 59.216 295.983 59.344C295.919 59.408 295.631 59.728 295.119 60.304C294.031 61.584 293.039 62.96 292.143 64.432C291.503 65.456 290.735 67.056 289.839 69.232C289.135 70.96 288.431 72.592 287.727 74.128C286.831 76.048 285.999 77.648 285.231 78.928C284.335 80.336 283.631 81.2 283.119 81.52C282.607 81.904 282.031 82.064 281.391 82C280.815 81.936 280.335 81.68 279.951 81.232C279.439 80.656 279.215 79.792 279.279 78.64C279.343 77.616 279.663 75.92 280.239 73.552C281.007 70.096 281.423 68.336 281.487 68.272C281.615 67.76 281.775 67.216 281.967 66.64C282.159 66 282.351 65.36 282.543 64.72C282.735 64.08 282.895 63.536 283.023 63.088C284.047 59.632 284.591 57.84 284.655 57.712C284.655 57.584 284.719 57.424 284.847 57.232C285.039 56.4 285.327 55.696 285.711 55.12C286.159 54.416 286.639 54.064 287.151 54.064C287.727 54 288.079 54.32 288.207 55.024C288.271 55.344 288.143 56.56 287.823 58.672C287.823 58.8 287.759 59.248 287.631 60.016C287.503 60.784 287.407 61.392 287.343 61.84C289.007 58.704 290.735 56.496 292.527 55.216C293.871 54.256 295.215 53.776 296.559 53.776C298.223 53.776 299.567 54.48 300.591 55.888C301.935 57.872 302.127 60.368 301.167 63.376C301.103 63.44 301.039 63.6 300.975 63.856C300.911 64.048 300.847 64.208 300.783 64.336C300.719 64.528 300.687 64.656 300.687 64.72C300.751 64.72 300.879 64.688 301.071 64.624C301.391 64.56 301.615 64.464 301.743 64.336C301.935 64.144 302.127 63.92 302.319 63.664C302.575 63.344 302.767 63.12 302.895 62.992C304.303 61.392 305.487 60.336 306.447 59.824C307.151 59.44 307.919 59.312 308.751 59.44C309.583 59.568 310.223 59.984 310.671 60.688C311.183 61.456 311.439 62.544 311.439 63.952C311.503 65.488 311.407 67.216 311.151 69.136C311.151 69.52 311.055 70.416 310.863 71.824C310.799 72.784 310.863 73.328 311.055 73.456C311.311 73.648 311.791 73.392 312.495 72.688C312.751 72.496 313.135 72.176 313.647 71.728C314.031 71.472 314.479 71.152 314.991 70.768C315.567 70.32 316.079 69.904 316.527 69.52C317.039 69.136 317.487 68.784 317.871 68.464C318.319 68.144 318.767 67.76 319.215 67.312C319.727 66.864 320.207 66.416 320.655 65.968C321.167 65.456 321.615 65.04 321.999 64.72ZM345.306 70.096C345.434 70.288 345.21 70.768 344.634 71.536C344.25 71.92 343.802 72.4 343.29 72.976C342.074 74.32 341.082 75.344 340.314 76.048C338.906 77.264 337.914 78.096 337.338 78.544C336.314 79.248 335.162 79.888 333.882 80.464C330.874 81.808 328.186 82.256 325.818 81.808C322.874 81.36 320.762 80.016 319.482 77.776C318.202 75.6 317.882 72.912 318.522 69.712C318.65 69.008 319.002 67.696 319.578 65.776C320.154 64.048 320.666 62.832 321.114 62.128C322.65 59.696 324.314 58.032 326.106 57.136C328.41 55.984 330.554 55.792 332.538 56.56C333.626 57.008 334.298 57.68 334.554 58.576C334.938 59.664 334.842 61.04 334.266 62.704C333.37 65.2 332.218 67.152 330.81 68.56C328.378 70.992 326.17 71.568 324.186 70.288C324.058 70.224 323.93 70.096 323.802 69.904C323.354 71.568 323.354 73.008 323.802 74.224C324.058 74.992 324.602 75.664 325.434 76.24C326.266 76.816 327.258 76.976 328.41 76.72C330.714 76.208 332.826 75.472 334.746 74.512C335.642 74.064 336.57 73.488 337.53 72.784C337.786 72.592 338.01 72.368 338.202 72.112C338.458 71.856 338.714 71.568 338.97 71.248C339.29 70.928 339.514 70.672 339.642 70.48C339.834 70.288 340.058 70.096 340.314 69.904C340.634 69.648 340.954 69.424 341.274 69.232C341.594 68.976 341.85 68.752 342.042 68.56C342.362 68.24 342.778 67.792 343.29 67.216C343.866 66.576 344.218 66.16 344.346 65.968C344.666 65.648 344.922 65.648 345.114 65.968C345.306 66.224 345.274 66.576 345.018 67.024C343.93 68.368 342.362 70.032 340.314 72.016C339.93 72.336 339.386 72.784 338.682 73.36C338.042 73.872 337.69 74.16 337.626 74.224C336.346 75.312 335.514 75.984 335.13 76.24C334.81 76.432 333.818 76.88 332.154 77.584C330.682 78.224 329.69 78.608 329.178 78.736C328.41 78.864 327.322 78.8 325.914 78.544C324.762 78.352 323.834 77.936 323.13 77.296C321.466 75.824 320.698 73.84 320.826 71.344C320.89 70.32 321.082 69.2 321.402 67.984C321.53 67.6 321.978 66.576 322.746 64.912C323.066 64.016 323.61 63.024 324.378 61.936C324.442 61.872 324.506 61.776 324.57 61.648C324.698 61.456 324.794 61.296 324.858 61.168C323.898 62.128 322.874 63.728 321.786 65.968C321.274 66.992 320.858 68.272 320.538 69.808C320.218 71.408 320.122 72.784 320.25 73.936C320.506 75.28 321.05 76.496 321.882 77.584C322.714 78.608 323.77 79.344 325.05 79.792C326.33 80.24 327.642 80.336 328.986 80.08C330.394 79.76 331.706 79.376 332.922 78.928C334.394 78.416 335.674 77.808 336.762 77.104C336.89 77.04 337.914 76.208 339.834 74.608C341.114 73.584 342.138 72.656 342.906 71.824C342.97 71.76 343.162 71.504 343.482 71.056C343.866 70.608 344.154 70.288 344.346 70.096C344.73 69.776 345.05 69.776 345.306 70.096ZM327.93 62.416C327.162 62.992 326.49 63.824 325.914 64.912C325.594 65.552 325.274 66.192 324.954 66.832C324.954 66.896 324.954 66.928 324.954 66.928C325.018 66.928 325.05 66.928 325.05 66.928C325.626 67.248 326.074 67.28 326.394 67.024C326.522 66.96 326.714 66.768 326.97 66.448C327.61 65.744 328.186 64.912 328.698 63.952C329.018 63.312 329.274 62.736 329.466 62.224C329.594 61.904 329.594 61.712 329.466 61.648C329.402 61.584 329.242 61.616 328.986 61.744C328.922 61.872 328.762 62 328.506 62.128C328.25 62.256 328.058 62.352 327.93 62.416Z" fill="#C26499"/>
<path d="M22.5547 85.8438C22.5703 85.8438 22.5938 85.8438 22.625 85.8438C24.6094 85.8438 26.3672 86.6953 27.8984 88.3984C28.5078 89.1797 28.8828 89.7656 29.0234 90.1562C29.0234 90.1719 29.0234 90.1797 29.0234 90.1797C28.8984 90.2422 28.6328 90.3672 28.2266 90.5547C28.2266 90.5078 28.0156 90.1562 27.5938 89.5C26.1875 87.6875 24.5078 86.7812 22.5547 86.7812C20.7422 86.7812 19.1406 87.6016 17.75 89.2422C16.625 90.7891 16.0625 92.5234 16.0625 94.4453C16.0625 96.5547 16.75 98.4062 18.125 100C18.6875 100.594 19.1562 100.992 19.5312 101.195C20.5156 101.773 21.4766 102.062 22.4141 102.062C22.4922 102.062 22.6016 102.062 22.7422 102.062C23.8984 102.062 25.0391 101.648 26.1641 100.82C26.7109 100.383 27.1641 99.9219 27.5234 99.4375C27.8047 99.0312 28.0469 98.625 28.25 98.2188C28.3906 98.2812 28.6641 98.4062 29.0703 98.5938C29.0703 98.6094 29.0703 98.6172 29.0703 98.6172C28.9766 98.8828 28.6953 99.3516 28.2266 100.023C27.4766 100.961 26.7422 101.625 26.0234 102.016C24.9453 102.672 23.7969 103 22.5781 103C20.7188 103 19.0469 102.258 17.5625 100.773C16.75 99.8828 16.1562 98.9297 15.7812 97.9141C15.3438 96.7578 15.125 95.6094 15.125 94.4688C15.125 94.4531 15.125 94.4219 15.125 94.375C15.125 92.0312 15.9062 89.9688 17.4688 88.1875C18.9531 86.625 20.6484 85.8438 22.5547 85.8438ZM41.2663 85.8438C42.0944 85.8438 43.7584 85.8438 46.2584 85.8438C47.7741 85.8438 49.0866 86.4531 50.1959 87.6719C51.0709 88.7656 51.5084 89.9062 51.5084 91.0938C51.5084 91.1719 51.5084 91.2891 51.5084 91.4453C51.5084 92.5547 51.1256 93.6328 50.36 94.6797C49.6569 95.5547 48.7584 96.1484 47.6647 96.4609C48.4928 97.9141 49.735 100.086 51.3913 102.977C51.3756 102.977 51.3678 102.984 51.3678 103C51.1959 103 50.8366 103 50.2897 103C50.2741 102.984 50.0084 102.5 49.4928 101.547C48.8678 100.453 47.9459 98.8203 46.7272 96.6484C46.6334 96.6641 46.4459 96.6719 46.1647 96.6719C45.4928 96.6719 44.1491 96.6719 42.1334 96.6719C42.1334 97.7188 42.1334 99.8203 42.1334 102.977C42.1334 102.977 42.1256 102.984 42.11 103C41.9694 103 41.6881 103 41.2663 103C41.2506 103 41.235 102.992 41.2194 102.977C41.2194 100.117 41.2194 94.4141 41.2194 85.8672C41.2194 85.8672 41.235 85.8594 41.2663 85.8438ZM42.1334 86.7812C42.1334 88.2656 42.1334 91.2578 42.1334 95.7578C42.7897 95.7578 44.1022 95.7578 46.0709 95.7578C47.9616 95.7578 49.3366 94.8906 50.1959 93.1562C50.4616 92.5312 50.5944 91.9297 50.5944 91.3516C50.5944 91.3047 50.5944 91.2422 50.5944 91.1641C50.5944 90.0391 50.1803 89.0156 49.3522 88.0938C48.4772 87.2188 47.4147 86.7812 46.1647 86.7812C45.2741 86.7812 43.9303 86.7812 42.1334 86.7812ZM63.47 85.8438C64.7981 85.8438 67.4622 85.8438 71.4622 85.8438C71.4622 86 71.4622 86.3047 71.4622 86.7578C71.4622 86.7578 71.4622 86.7656 71.4622 86.7812C70.2747 86.7812 67.9075 86.7812 64.3606 86.7812C64.3606 87.9688 64.3606 90.3672 64.3606 93.9766C65.3294 93.9766 67.2513 93.9766 70.1263 93.9766C70.1263 94.1172 70.1263 94.4141 70.1263 94.8672C69.1731 94.8672 67.2513 94.8672 64.3606 94.8672C64.3606 96.0703 64.3606 98.4688 64.3606 102.062C65.5481 102.062 67.9153 102.062 71.4622 102.062C71.4622 102.078 71.4622 102.086 71.4622 102.086C71.4622 102.242 71.4622 102.547 71.4622 103C70.1341 103 67.47 103 63.47 103C63.4544 103 63.4466 103 63.4466 103C63.4466 100.141 63.4466 94.4219 63.4466 85.8438C63.4466 85.8438 63.4544 85.8438 63.47 85.8438ZM88.7909 85.8438C88.9941 85.8438 89.3925 85.8438 89.9863 85.8438C90.0331 85.8906 90.3144 86.6641 90.83 88.1641C92.0488 91.4609 93.8613 96.4062 96.2675 103C96.1113 103 95.7909 103 95.3066 103C95.2597 102.938 95.1347 102.594 94.9316 101.969C94.6503 101.234 94.2363 100.125 93.6894 98.6406C92.2519 98.6406 89.3925 98.6406 85.1113 98.6406C85.0956 98.6562 84.8456 99.3125 84.3613 100.609C84.1738 101.141 83.8847 101.938 83.4941 103C83.3378 103 83.0097 103 82.5097 103C83.4784 100.359 85.4003 95.1016 88.2753 87.2266C88.5878 86.3672 88.7597 85.9062 88.7909 85.8438ZM89.3769 86.8984C88.7206 88.6953 87.4003 92.3047 85.4159 97.7266C86.7441 97.7266 89.3925 97.7266 93.3613 97.7266C92.6894 95.9141 91.3691 92.3047 89.4003 86.8984C89.3847 86.8984 89.3769 86.8984 89.3769 86.8984ZM106.12 85.8438C107.885 85.8438 111.424 85.8438 116.737 85.8438C116.737 86 116.737 86.3047 116.737 86.7578C115.94 86.7578 114.323 86.7578 111.885 86.7578C111.885 89.4609 111.885 94.875 111.885 103C111.885 103 111.878 103 111.862 103C111.721 103 111.424 103 110.971 103C110.971 100.297 110.971 94.8828 110.971 86.7578C110.159 86.7578 108.542 86.7578 106.12 86.7578C106.12 86.6016 106.12 86.2969 106.12 85.8438ZM129.214 85.8438C129.214 88.7031 129.214 94.4219 129.214 103C129.058 103 128.761 103 128.323 103C128.308 103 128.3 103 128.3 103C128.3 100.141 128.3 94.4219 128.3 85.8438C128.456 85.8438 128.761 85.8438 129.214 85.8438ZM141.012 85.8438C141.168 85.8438 141.496 85.8438 141.996 85.8438C142.027 85.875 142.222 86.4062 142.582 87.4375C145.066 94.1719 146.34 97.6406 146.402 97.8438C146.73 98.7656 147.23 100.133 147.902 101.945C147.902 101.945 147.91 101.945 147.926 101.945C148.91 99.2578 150.871 93.8906 153.808 85.8438C153.808 85.8438 153.816 85.8438 153.832 85.8438C153.988 85.8438 154.316 85.8438 154.816 85.8438C154.769 86.0156 153.183 90.3516 150.058 98.8516C149.715 99.7734 149.199 101.156 148.512 103C148.308 103 147.918 103 147.34 103C147.308 103 147.183 102.664 146.965 101.992C145.762 98.7578 143.965 93.9062 141.574 87.4375C141.23 86.4844 141.043 85.9531 141.012 85.8438ZM166.614 85.8438C167.942 85.8438 170.606 85.8438 174.606 85.8438C174.606 86 174.606 86.3047 174.606 86.7578C174.606 86.7578 174.606 86.7656 174.606 86.7812C173.418 86.7812 171.051 86.7812 167.504 86.7812C167.504 87.9688 167.504 90.3672 167.504 93.9766C168.473 93.9766 170.395 93.9766 173.27 93.9766C173.27 94.1172 173.27 94.4141 173.27 94.8672C172.317 94.8672 170.395 94.8672 167.504 94.8672C167.504 96.0703 167.504 98.4688 167.504 102.062C168.692 102.062 171.059 102.062 174.606 102.062C174.606 102.078 174.606 102.086 174.606 102.086C174.606 102.242 174.606 102.547 174.606 103C173.278 103 170.614 103 166.614 103C166.598 103 166.59 103 166.59 103C166.59 100.141 166.59 94.4219 166.59 85.8438C166.59 85.8438 166.598 85.8438 166.614 85.8438ZM203.498 86.7812C203.498 89.3281 203.498 94.4219 203.498 102.062C203.998 102.062 204.998 102.062 206.498 102.062C208.045 102.062 209.506 101.477 210.881 100.305C211.552 99.6484 211.998 99.1094 212.217 98.6875C213.013 97.3594 213.412 95.9375 213.412 94.4219C213.412 92.2812 212.662 90.4141 211.162 88.8203C209.787 87.4609 208.162 86.7812 206.287 86.7812C205.662 86.7812 204.732 86.7812 203.498 86.7812ZM202.631 85.8438C203.256 85.8438 204.513 85.8438 206.404 85.8438C208.435 85.8438 210.248 86.625 211.842 88.1875C213.513 89.9531 214.349 92.0391 214.349 94.4453C214.349 96.4609 213.724 98.2891 212.474 99.9297C211.912 100.617 211.388 101.133 210.904 101.477C210.373 101.852 209.896 102.133 209.474 102.32C208.599 102.664 208.037 102.836 207.787 102.836C207.412 102.945 206.795 103 205.935 103C205.201 103 204.099 103 202.631 103C202.615 103 202.599 102.992 202.584 102.977C202.584 100.117 202.584 94.4141 202.584 85.8672C202.584 85.8672 202.599 85.8594 202.631 85.8438ZM226.827 85.8438C228.155 85.8438 230.819 85.8438 234.819 85.8438C234.819 86 234.819 86.3047 234.819 86.7578C234.819 86.7578 234.819 86.7656 234.819 86.7812C233.631 86.7812 231.264 86.7812 227.717 86.7812C227.717 87.9688 227.717 90.3672 227.717 93.9766C228.686 93.9766 230.608 93.9766 233.483 93.9766C233.483 94.1172 233.483 94.4141 233.483 94.8672C232.53 94.8672 230.608 94.8672 227.717 94.8672C227.717 96.0703 227.717 98.4688 227.717 102.062C228.905 102.062 231.272 102.062 234.819 102.062C234.819 102.078 234.819 102.086 234.819 102.086C234.819 102.242 234.819 102.547 234.819 103C233.491 103 230.827 103 226.827 103C226.811 103 226.803 103 226.803 103C226.803 100.141 226.803 94.4219 226.803 85.8438C226.803 85.8438 226.811 85.8438 226.827 85.8438ZM251.585 85.5859C251.601 85.5859 251.647 85.5859 251.726 85.5859C252.694 85.5859 253.608 85.8672 254.468 86.4297C254.655 86.5547 254.897 86.7578 255.194 87.0391C255.491 87.3516 255.679 87.5703 255.757 87.6953C255.976 88.0078 256.14 88.2656 256.249 88.4688C256.062 88.5469 255.78 88.6719 255.405 88.8438C255.28 88.5781 255.085 88.2969 254.819 88C254.616 87.75 254.413 87.5547 254.21 87.4141C253.476 86.8047 252.624 86.5 251.655 86.5C250.655 86.5 249.78 86.7812 249.03 87.3438C248.78 87.5781 248.569 87.7969 248.397 88C247.897 88.6875 247.647 89.4375 247.647 90.25C247.647 91.0469 247.89 91.6719 248.374 92.125C248.64 92.375 248.882 92.5625 249.101 92.6875C249.554 92.9531 250.241 93.2344 251.163 93.5312C251.726 93.7031 252.444 93.8906 253.319 94.0938C253.694 94.2031 254.015 94.3281 254.28 94.4688C254.562 94.6094 254.874 94.8203 255.218 95.1016C255.483 95.3672 255.647 95.5469 255.71 95.6406C255.882 95.8594 256.03 96.0938 256.155 96.3438C256.452 96.9844 256.601 97.6328 256.601 98.2891C256.601 98.3203 256.601 98.3672 256.601 98.4297C256.601 99.2109 256.397 99.9844 255.991 100.75C255.491 101.672 254.726 102.359 253.694 102.812C253.007 103.094 252.288 103.234 251.538 103.234C250.304 103.234 249.187 102.852 248.187 102.086C248.046 101.961 247.843 101.773 247.577 101.523C247.233 101.133 246.991 100.812 246.851 100.562C246.726 100.375 246.577 100.125 246.405 99.8125C246.39 99.75 246.358 99.6562 246.312 99.5312C246.858 99.2812 247.14 99.1562 247.155 99.1562C247.296 99.5312 247.483 99.8906 247.718 100.234C247.858 100.438 248.069 100.68 248.351 100.961C248.616 101.227 248.812 101.406 248.937 101.5C249.733 102.047 250.601 102.32 251.538 102.32C252.46 102.32 253.312 102.055 254.093 101.523C254.233 101.43 254.429 101.266 254.679 101.031C255.054 100.594 255.319 100.125 255.476 99.625C255.616 99.2031 255.687 98.7812 255.687 98.3594C255.687 98.3594 255.687 98.3516 255.687 98.3359C255.687 97.4453 255.397 96.6719 254.819 96.0156C254.569 95.7656 254.39 95.6172 254.28 95.5703C254.093 95.4297 253.897 95.3125 253.694 95.2188C253.507 95.1406 253.272 95.0547 252.991 94.9609C251.272 94.5703 249.983 94.1641 249.124 93.7422C248.812 93.6016 248.507 93.4297 248.21 93.2266C247.226 92.4922 246.733 91.5078 246.733 90.2734C246.733 90.2578 246.733 90.2344 246.733 90.2031C246.733 89.2812 247.007 88.4062 247.554 87.5781C247.663 87.4219 247.804 87.25 247.976 87.0625C248.241 86.7969 248.437 86.6328 248.562 86.5703C248.749 86.4297 248.944 86.3047 249.147 86.1953C249.46 86.0234 249.78 85.8906 250.108 85.7969C250.624 85.6562 251.116 85.5859 251.585 85.5859ZM269.757 85.8438C269.757 88.7031 269.757 94.4219 269.757 103C269.601 103 269.304 103 268.867 103C268.851 103 268.843 103 268.843 103C268.843 100.141 268.843 94.4219 268.843 85.8438C269 85.8438 269.304 85.8438 269.757 85.8438ZM289.782 85.8438C289.782 85.8438 289.789 85.8438 289.805 85.8438C291.805 85.8438 293.571 86.6562 295.102 88.2812C295.68 88.9531 296.133 89.6328 296.461 90.3203C296.461 90.3359 296.461 90.3438 296.461 90.3438C295.961 90.6094 295.68 90.7422 295.617 90.7422C295.399 90.1484 294.914 89.4453 294.164 88.6328C292.867 87.3984 291.407 86.7812 289.782 86.7812C287.938 86.7812 286.313 87.5938 284.907 89.2188C283.735 90.7656 283.149 92.5078 283.149 94.4453C283.149 96.5391 283.852 98.3906 285.258 100C286.024 100.75 286.633 101.219 287.086 101.406C287.321 101.547 287.711 101.703 288.258 101.875C288.774 102 289.227 102.062 289.617 102.062C289.696 102.062 289.813 102.062 289.969 102.062C291.094 102.062 292.227 101.664 293.367 100.867C293.977 100.43 294.524 99.8672 295.008 99.1797C295.649 98.2422 296.063 97.2422 296.25 96.1797C296.297 96.1016 296.352 95.8359 296.414 95.3828C295.274 95.3828 293.563 95.3828 291.282 95.3828C291.282 95.3672 291.274 95.3516 291.258 95.3359C291.258 95.1953 291.258 94.9062 291.258 94.4688C292.274 94.4688 294.313 94.4688 297.375 94.4688C297.375 96.2656 296.875 97.9688 295.875 99.5781C294.875 101.062 293.532 102.102 291.844 102.695C291.157 102.898 290.469 103 289.782 103C287.86 103 286.149 102.242 284.649 100.727C283.024 98.9453 282.211 96.8516 282.211 94.4453C282.211 94.4297 282.211 94.4062 282.211 94.375C282.211 92 283.024 89.9062 284.649 88.0938C286.18 86.5938 287.891 85.8438 289.782 85.8438ZM310.087 85.8438C310.321 85.8438 310.79 85.8438 311.493 85.8438C311.571 85.9375 311.915 86.5 312.524 87.5312C314.399 90.7656 317.22 95.6016 320.985 102.039C320.985 99.3516 320.985 93.9609 320.985 85.8672C321.001 85.8672 321.017 85.8594 321.032 85.8438C321.173 85.8438 321.462 85.8438 321.899 85.8438C321.899 85.8438 321.907 85.8516 321.923 85.8672C321.923 88.7266 321.923 94.4297 321.923 102.977C321.923 102.977 321.915 102.984 321.899 103C321.665 103 321.196 103 320.493 103C320.446 102.969 320.228 102.594 319.837 101.875C317.868 98.5312 314.931 93.5078 311.024 86.8047C311.024 86.8047 311.017 86.8047 311.001 86.8047C311.001 89.4922 311.001 94.8828 311.001 102.977C311.001 102.977 310.993 102.984 310.978 103C310.837 103 310.556 103 310.134 103C310.087 103 310.056 102.984 310.04 102.953C310.04 99.1562 310.04 93.4609 310.04 85.8672C310.04 85.8672 310.056 85.8594 310.087 85.8438ZM335.337 85.8438C336.666 85.8438 339.33 85.8438 343.33 85.8438C343.33 86 343.33 86.3047 343.33 86.7578C343.33 86.7578 343.33 86.7656 343.33 86.7812C342.142 86.7812 339.775 86.7812 336.228 86.7812C336.228 87.9688 336.228 90.3672 336.228 93.9766C337.197 93.9766 339.119 93.9766 341.994 93.9766C341.994 94.1172 341.994 94.4141 341.994 94.8672C341.041 94.8672 339.119 94.8672 336.228 94.8672C336.228 96.0703 336.228 98.4688 336.228 102.062C337.416 102.062 339.783 102.062 343.33 102.062C343.33 102.078 343.33 102.086 343.33 102.086C343.33 102.242 343.33 102.547 343.33 103C342.002 103 339.337 103 335.337 103C335.322 103 335.314 103 335.314 103C335.314 100.141 335.314 94.4219 335.314 85.8438C335.314 85.8438 335.322 85.8438 335.337 85.8438ZM356.041 85.8438C356.869 85.8438 358.533 85.8438 361.033 85.8438C362.549 85.8438 363.862 86.4531 364.971 87.6719C365.846 88.7656 366.283 89.9062 366.283 91.0938C366.283 91.1719 366.283 91.2891 366.283 91.4453C366.283 92.5547 365.901 93.6328 365.135 94.6797C364.432 95.5547 363.533 96.1484 362.44 96.4609C363.268 97.9141 364.51 100.086 366.166 102.977C366.151 102.977 366.143 102.984 366.143 103C365.971 103 365.612 103 365.065 103C365.049 102.984 364.783 102.5 364.268 101.547C363.643 100.453 362.721 98.8203 361.502 96.6484C361.408 96.6641 361.221 96.6719 360.94 96.6719C360.268 96.6719 358.924 96.6719 356.908 96.6719C356.908 97.7188 356.908 99.8203 356.908 102.977C356.908 102.977 356.901 102.984 356.885 103C356.744 103 356.463 103 356.041 103C356.026 103 356.01 102.992 355.994 102.977C355.994 100.117 355.994 94.4141 355.994 85.8672C355.994 85.8672 356.01 85.8594 356.041 85.8438ZM356.908 86.7812C356.908 88.2656 356.908 91.2578 356.908 95.7578C357.565 95.7578 358.877 95.7578 360.846 95.7578C362.737 95.7578 364.112 94.8906 364.971 93.1562C365.237 92.5312 365.369 91.9297 365.369 91.3516C365.369 91.3047 365.369 91.2422 365.369 91.1641C365.369 90.0391 364.955 89.0156 364.127 88.0938C363.252 87.2188 362.19 86.7812 360.94 86.7812C360.049 86.7812 358.705 86.7812 356.908 86.7812Z" fill="#E4C7B7"/>
</svg>
