<svg width="40" height="40" viewBox="0 0 40 40" fill="none" xmlns="http://www.w3.org/2000/svg">
<path opacity="0.5" d="M36.6673 20.0002C36.6673 29.2049 29.2054 36.6668 20.0007 36.6668C10.7959 36.6668 3.33398 29.2049 3.33398 20.0002C3.33398 10.7954 10.7959 3.3335 20.0007 3.3335C29.2054 3.3335 36.6673 10.7954 36.6673 20.0002Z" fill="white"/>
<path d="M14.9501 14.9496C15.4383 14.4615 16.2297 14.4615 16.7179 14.9496L20.0007 18.2324L23.2834 14.9496C23.7716 14.4615 24.563 14.4615 25.0512 14.9496C25.5394 15.4378 25.5394 16.2293 25.0512 16.7174L21.7684 20.0002L25.0512 23.2829C25.5393 23.7711 25.5393 24.5625 25.0512 25.0507C24.563 25.5388 23.7716 25.5388 23.2834 25.0507L20.0007 21.7679L16.7179 25.0507C16.2297 25.5389 15.4383 25.5389 14.9501 25.0507C14.462 24.5626 14.462 23.7711 14.9501 23.2829L18.2329 20.0002L14.9501 16.7174C14.4619 16.2292 14.4619 15.4378 14.9501 14.9496Z" fill="white"/>
</svg>
