<svg width="100" height="100" viewBox="0 0 100 100" fill="none" xmlns="http://www.w3.org/2000/svg">
<path d="M20.7458 40.3543C12.4712 37.0445 8.33398 35.3896 8.33398 33.3332C8.33398 31.2767 12.4712 29.6218 20.7458 26.312L32.4477 21.6312C40.7223 18.3214 44.8595 16.6665 50.0006 16.6665C55.1418 16.6665 59.279 18.3214 67.5536 21.6312L79.2555 26.312C87.5301 29.6218 91.6673 31.2767 91.6673 33.3332C91.6673 35.3896 87.5301 37.0445 79.2555 40.3543L67.5536 45.0351C59.279 48.3449 55.1418 49.9998 50.0006 49.9998C44.8595 49.9998 40.7223 48.3449 32.4477 45.0351L20.7458 40.3543Z" fill="#EB9F9F"/>
<path fill-rule="evenodd" clip-rule="evenodd" d="M8.33398 33.3332C8.33398 35.3896 12.4712 37.0445 20.7458 40.3543L32.4477 45.0351C40.7223 48.3449 44.8595 49.9998 50.0006 49.9998C55.1418 49.9998 59.279 48.3449 67.5536 45.0351L79.2555 40.3543C87.5301 37.0445 91.6673 35.3896 91.6673 33.3332C91.6673 31.2767 87.5301 29.6218 79.2555 26.312L67.5536 21.6312C59.279 18.3214 55.1418 16.6665 50.0006 16.6665C44.8595 16.6665 40.7223 18.3214 32.4477 21.6312L20.7458 26.312C12.4712 29.6218 8.33398 31.2767 8.33398 33.3332Z" fill="#E4C7B7"/>
<path opacity="0.7" d="M24.0262 41.6665L20.7458 42.9787C12.4712 46.2885 8.33398 47.9434 8.33398 49.9998C8.33398 52.0563 12.4712 53.7112 20.7458 57.021L32.4477 61.7018C40.7223 65.0116 44.8595 66.6665 50.0006 66.6665C55.1418 66.6665 59.279 65.0116 67.5536 61.7018L79.2555 57.021C87.5301 53.7112 91.6673 52.0563 91.6673 49.9998C91.6673 47.9434 87.5301 46.2885 79.2555 42.9787L75.9751 41.6665L67.5536 45.0351C59.279 48.3449 55.1418 49.9998 50.0006 49.9998C44.8595 49.9998 40.7223 48.3449 32.4477 45.0351L24.0262 41.6665Z" fill="#E4C7B7"/>
<path opacity="0.4" d="M24.0262 58.3335L20.7458 59.6457C12.4712 62.9555 8.33398 64.6104 8.33398 66.6668C8.33398 68.7233 12.4712 70.3782 20.7458 73.688L32.4477 78.3688C40.7223 81.6786 44.8595 83.3335 50.0006 83.3335C55.1418 83.3335 59.279 81.6786 67.5536 78.3688L79.2555 73.688C87.5301 70.3782 91.6673 68.7233 91.6673 66.6668C91.6673 64.6104 87.5301 62.9555 79.2555 59.6457L75.9751 58.3335L67.5536 61.7021C59.279 65.0119 55.1418 66.6668 50.0006 66.6668C44.8595 66.6668 40.7223 65.0119 32.4477 61.7021L24.0262 58.3335Z" fill="#E4C7B7"/>
</svg>
