<svg width="24" height="24" viewBox="0 0 24 24" fill="none" xmlns="http://www.w3.org/2000/svg">
<path d="M21.9999 8.58532V17.0731C21.9999 18.439 20.8733 19.6097 19.4393 19.7073C17.2884 19.9024 14.3181 20 12.0648 20C9.81144 20 6.84113 19.8048 4.69022 19.7073C3.25628 19.6097 2.12961 18.439 2.12961 17.0731V8.58532L3.66597 9.36581L10.7333 13.0731C11.143 13.2682 11.6551 13.3658 12.0648 13.3658C12.4745 13.3658 12.9866 13.2682 13.3963 13.0731L20.4636 9.36581L21.9999 8.58532Z" fill="#E4C7B7"/>
<path d="M21.8975 6.43902C21.8975 6.63415 21.7951 6.92683 21.5903 7.02439L20.3612 7.60976L12.5769 11.7073C12.1672 11.9024 11.7575 11.9024 11.3478 11.7073L2.33449 7.02439C2.12964 6.92683 1.92479 6.73171 2.02721 6.53659C2.23206 5.36585 3.25631 4.39024 4.58782 4.29268C6.73874 4.09756 9.70904 4 11.9624 4C14.2157 4 17.2884 4.19512 19.3369 4.29268C20.6685 4.39024 21.6927 5.26829 21.8975 6.43902Z" fill="#E4C7B7"/>
</svg>
