<svg width="96" height="96" viewBox="0 0 96 96" fill="none" xmlns="http://www.w3.org/2000/svg">
<g id="Bold Duotone / Design, Tools / Pallete 2">
<path id="Vector" opacity="0.5" d="M43.4345 87.3228C23.7234 85.0595 8.41602 68.3173 8.41602 47.9998C8.41602 26.1386 26.1381 8.4165 47.9993 8.4165C69.8606 8.4165 87.5827 26.1386 87.5827 47.9998C87.5827 68.4111 74.5886 66.7326 63.4904 65.2989C57.0893 64.472 51.3188 63.7266 49.0359 67.348C47.4747 69.8247 49.1624 72.9129 51.2326 74.9831C53.8192 77.5697 53.8192 81.7633 51.2326 84.3499C49.1624 86.4201 46.3431 87.6568 43.4345 87.3228Z" fill="#E4DFD9"/>
<g id="Vector_2">
<path d="M44.3775 28.2085C44.3775 31.4877 41.7192 34.146 38.44 34.146C35.1608 34.146 32.5025 31.4877 32.5025 28.2085C32.5025 24.9293 35.1608 22.271 38.44 22.271C41.7192 22.271 44.3775 24.9293 44.3775 28.2085Z" fill="#E4DFD9"/>
<path d="M26.2285 51.9594C29.5077 51.9594 32.166 49.3011 32.166 46.0219C32.166 42.7427 29.5077 40.0844 26.2285 40.0844C22.9493 40.0844 20.291 42.7427 20.291 46.0219C20.291 49.3011 22.9493 51.9594 26.2285 51.9594Z" fill="#E4DFD9"/>
<path d="M69.7702 51.9594C73.0494 51.9594 75.7077 49.3011 75.7077 46.0219C75.7077 42.7427 73.0494 40.0844 69.7702 40.0844C66.491 40.0844 63.8327 42.7427 63.8327 46.0219C63.8327 49.3011 66.491 51.9594 69.7702 51.9594Z" fill="#E4DFD9"/>
<path d="M57.8952 34.1469C61.1744 34.1469 63.8327 31.4886 63.8327 28.2094C63.8327 24.9302 61.1744 22.2719 57.8952 22.2719C54.616 22.2719 51.9577 24.9302 51.9577 28.2094C51.9577 31.4886 54.616 34.1469 57.8952 34.1469Z" fill="#E4DFD9"/>
</g>
</g>
</svg>
