<svg width="96" height="96" viewBox="0 0 96 96" fill="none" xmlns="http://www.w3.org/2000/svg">
<g id="Bold Duotone / Network, IT, Programming / Code Square">
<path id="Vector" opacity="0.5" d="M8.41602 47.9998C8.41602 29.3401 8.41602 20.0102 14.2129 14.2133C20.0097 8.4165 29.3396 8.4165 47.9993 8.4165C66.6591 8.4165 75.989 8.4165 81.7858 14.2133C87.5827 20.0102 87.5827 29.3401 87.5827 47.9998C87.5827 66.6596 87.5827 75.9895 81.7858 81.7863C75.989 87.5832 66.6591 87.5832 47.9993 87.5832C29.3396 87.5832 20.0097 87.5832 14.2129 81.7863C8.41602 75.9895 8.41602 66.6596 8.41602 47.9998Z" fill="#E4C7B7"/>
<g id="Vector_2">
<path d="M53.8903 26.015C55.474 26.4393 56.4138 28.0672 55.9895 29.6509L45.7446 67.8855C45.3202 69.4692 43.6923 70.4091 42.1086 69.9847C40.5249 69.5604 39.585 67.9325 40.0094 66.3488L50.2543 28.1142C50.6787 26.5305 52.3065 25.5906 53.8903 26.015Z" fill="#E4C7B7"/>
<path d="M59.755 34.0257C60.9143 32.8663 62.794 32.8663 63.9534 34.0257L64.7781 34.8504C67.2929 37.3651 69.3901 39.4621 70.8311 41.3507C72.352 43.3441 73.4188 45.4503 73.4188 47.9999C73.4188 50.5496 72.352 52.6558 70.8311 54.6492C69.3901 56.5377 67.2931 58.6346 64.7783 61.1493L64.7782 61.1493L63.9534 61.9742C62.794 63.1335 60.9143 63.1335 59.755 61.9742C58.5956 60.8148 58.5956 58.9351 59.755 57.7757L60.4341 57.0966C63.1323 54.3983 64.9404 52.5814 66.1106 51.0476C67.2286 49.5823 67.4812 48.7294 67.4812 47.9999C67.4812 47.2704 67.2286 46.4175 66.1106 44.9523C64.9404 43.4185 63.1323 41.6015 60.4341 38.9033L59.755 38.2242C58.5956 37.0648 58.5956 35.1851 59.755 34.0257Z" fill="#E4C7B7"/>
<path d="M32.0474 34.0257C33.2067 32.8663 35.0864 32.8663 36.2458 34.0257C37.4052 35.1851 37.4052 37.0648 36.2458 38.2242L35.5667 38.9033C32.8684 41.6015 31.0604 43.4185 29.8902 44.9523C28.7722 46.4175 28.5195 47.2704 28.5195 47.9999C28.5195 48.7294 28.7722 49.5823 29.8902 51.0476C31.0604 52.5814 32.8684 54.3983 35.5667 57.0966L36.2458 57.7757C37.4052 58.9351 37.4052 60.8148 36.2458 61.9742C35.0864 63.1335 33.2067 63.1335 32.0474 61.9742L31.2227 61.1495C28.7078 58.6347 26.6107 56.5378 25.1697 54.6492C23.6488 52.6558 22.582 50.5496 22.582 47.9999C22.582 45.4503 23.6488 43.3441 25.1697 41.3507C26.6107 39.4621 28.7078 37.3651 31.2227 34.8504L32.0474 34.0257Z" fill="#E4C7B7"/>
</g>
</g>
</svg>
