<svg width="32" height="32" viewBox="0 0 32 32" fill="none" xmlns="http://www.w3.org/2000/svg">
<path d="M28.0768 9.57453C28.0892 9.85613 28.0892 10.1249 28.0892 10.4065C28.1015 18.9442 21.8289 28.8002 10.3579 28.8002C6.97462 28.8002 3.6531 27.789 0.800781 25.8946C1.29469 25.9586 1.7886 25.9842 2.2825 25.9842C5.08543 25.9842 7.81427 25.0114 10.0245 23.2066C7.3574 23.1554 5.01134 21.3506 4.19639 18.7138C5.13482 18.9058 6.09794 18.8674 7.01167 18.5986C4.10996 18.0098 2.0232 15.3602 2.01085 12.2753C2.01085 12.2497 2.01085 12.2241 2.01085 12.1985C2.87519 12.6977 3.85066 12.9793 4.83847 13.0049C2.10964 11.1105 1.25765 7.33453 2.91224 4.37772C6.08559 8.42253 10.753 10.8673 15.7662 11.1361C15.2599 8.89613 15.9514 6.54092 17.5689 4.95372C20.0755 2.50891 24.0268 2.63691 26.3975 5.23532C27.7928 4.95372 29.1387 4.41612 30.3611 3.66091C29.8919 5.15852 28.9165 6.42572 27.62 7.23213C28.8547 7.07853 30.0648 6.73292 31.2008 6.22092C30.3611 7.52653 29.2992 8.65293 28.0768 9.57453Z" fill="#E4C7B7"/>
</svg>
